<?xml version="1.0" encoding="UTF-8"?>
<!DOCTYPE svg PUBLIC "-//W3C//DTD SVG 1.1//EN" "http://www.w3.org/Graphics/SVG/1.1/DTD/svg11.dtd">
<svg xmlns="http://www.w3.org/2000/svg" version="1.1" width="702px" height="702px" style="shape-rendering:geometricPrecision; text-rendering:geometricPrecision; image-rendering:optimizeQuality; fill-rule:evenodd; clip-rule:evenodd" xmlns:xlink="http://www.w3.org/1999/xlink">
<g><path style="opacity:0.901" fill="#d0dcde" d="M 317.5,-0.5 C 334.833,-0.5 352.167,-0.5 369.5,-0.5C 369.5,-0.166667 369.5,0.166667 369.5,0.5C 352.816,0.294079 336.15,0.627412 319.5,1.5C 318.127,1.65668 316.793,1.49001 315.5,1C 316.416,0.721579 317.082,0.221579 317.5,-0.5 Z"/></g>
<g><path style="opacity:0.008" fill="#030303" d="M 410.5,-0.5 C 417.5,-0.5 424.5,-0.5 431.5,-0.5C 431.281,0.675044 431.614,1.67504 432.5,2.5C 434.409,1.65178 436.409,1.31845 438.5,1.5C 438.36,3.12377 439.027,4.29044 440.5,5C 439.167,5.33333 437.833,5.66667 436.5,6C 439.513,6.50218 442.513,7.00218 445.5,7.5C 445.5,7.83333 445.5,8.16667 445.5,8.5C 437.572,8.63927 430.238,6.80593 423.5,3C 420.5,2.66667 417.5,2.33333 414.5,2C 412.934,1.3918 411.6,0.558465 410.5,-0.5 Z"/></g>
<g><path style="opacity:0.204" fill="#414242" d="M 297.5,-0.5 C 300.167,-0.5 302.833,-0.5 305.5,-0.5C 304.653,0.96626 303.32,1.79959 301.5,2C 298.243,3.04287 294.91,3.54287 291.5,3.5C 293.364,1.98618 295.364,0.652846 297.5,-0.5 Z"/></g>
<g><path style="opacity:1" fill="#1f3646" d="M 369.5,0.5 C 389.671,2.18872 409.671,5.18872 429.5,9.5C 430.85,10.6499 430.684,11.3166 429,11.5C 415.05,9.46796 401.217,7.13463 387.5,4.5C 385.617,5.02427 383.784,5.69094 382,6.5C 375.267,4.99059 368.433,4.32392 361.5,4.5C 356.587,4.51284 351.753,4.84617 347,5.5C 345.029,3.90027 343.196,3.73361 341.5,5C 336.821,6.27931 332.154,6.61264 327.5,6C 328.956,6.42258 329.456,7.25591 329,8.5C 323.791,6.31936 317.958,4.98603 311.5,4.5C 294.252,6.9648 277.252,10.6315 260.5,15.5C 257.015,15.3114 253.348,15.3114 249.5,15.5C 272.355,8.39572 295.688,3.72905 319.5,1.5C 336.15,0.627412 352.816,0.294079 369.5,0.5 Z"/></g>
<g><path style="opacity:0.998" fill="#19384f" d="M 429.5,9.5 C 430.492,9.32842 431.158,9.66175 431.5,10.5C 438.072,13.1089 444.738,15.7756 451.5,18.5C 452.086,18.2907 452.586,17.9574 453,17.5C 455.392,21.0198 458.559,22.0198 462.5,20.5C 466.702,21.8506 470.535,23.8506 474,26.5C 476.5,27 479,27.5 481.5,28C 482.973,28.7096 483.64,29.8762 483.5,31.5C 486.518,31.3354 489.518,31.502 492.5,32C 496.165,34.5006 500.498,36.6672 505.5,38.5C 506.107,38.3764 506.44,38.0431 506.5,37.5C 507.391,38.1098 508.391,38.4431 509.5,38.5C 550.404,59.7268 586.071,87.7268 616.5,122.5C 657.172,171.082 683.505,226.749 695.5,289.5C 694.853,290.274 694.52,291.274 694.5,292.5C 697.993,314.035 699.327,335.702 698.5,357.5C 697.459,359.991 696.626,359.991 696,357.5C 695.5,360 695,362.5 694.5,365C 695.953,370.285 696.953,375.619 697.5,381C 696.874,381.75 696.374,382.584 696,383.5C 695.497,394.201 694.663,404.867 693.5,415.5C 692.5,415.5 691.5,415.5 690.5,415.5C 690.307,419.449 689.807,419.449 689,415.5C 688.244,417.809 688.744,419.809 690.5,421.5C 689.319,423.803 689.319,426.137 690.5,428.5C 687.994,434.636 686.66,440.969 686.5,447.5C 682.508,462.566 677.508,477.566 671.5,492.5C 633.419,573.915 573.752,633.581 492.5,671.5C 485.833,673.833 479.167,676.167 472.5,678.5C 461.39,681.146 450.39,684.313 439.5,688C 431.68,689.246 424.014,691.08 416.5,693.5C 415.833,693.167 415.167,692.833 414.5,692.5C 412.115,693.661 409.781,694.661 407.5,695.5C 373.515,698.952 339.515,699.286 305.5,696.5C 298.207,696.085 291.373,694.418 285,691.5C 284.127,691.735 283.293,692.069 282.5,692.5C 270.757,691.1 259.757,687.767 249.5,682.5C 249.167,683.167 248.833,683.833 248.5,684.5C 241.026,681.925 233.692,679.092 226.5,676C 227.5,675.667 228.5,675.333 229.5,675C 223.587,673.323 217.587,672.156 211.5,671.5C 179.297,658.07 149.963,640.07 123.5,617.5C 83.2335,583.241 52.5668,541.908 31.5,493.5C 29.8317,488.988 28.665,484.322 28,479.5C 27.6667,479.833 27.3333,480.167 27,480.5C 23.0472,472.639 20.7139,464.306 20,455.5C 19.1667,454.5 18.3333,453.5 17.5,452.5C 13.4317,441.343 10.4317,429.843 8.5,418C 8.83333,416.333 9.16667,414.667 9.5,413C 4.1857,391.704 3.01903,369.87 6,347.5C 6.33333,350.833 6.66667,354.167 7,357.5C 7.16667,355.167 7.33333,352.833 7.5,350.5C 5.3296,338.928 3.99627,327.262 3.5,315.5C 3.84569,314.304 4.34569,314.304 5,315.5C 6.65666,312.379 6.82332,309.213 5.5,306C 6.99486,298.584 7.82819,291.084 8,283.5C 8.67896,280.45 9.5123,277.45 10.5,274.5C 10.0431,273.702 9.37644,273.369 8.5,273.5C 9.83079,268.519 11.1641,263.519 12.5,258.5C 12.4573,257.584 12.1239,256.917 11.5,256.5C 11.5,254.5 11.5,252.5 11.5,250.5C 11.8333,250.5 12.1667,250.5 12.5,250.5C 12.3398,252.199 12.5065,253.866 13,255.5C 21.6454,225.885 33.812,197.885 49.5,171.5C 50.4013,170.71 51.0679,169.71 51.5,168.5C 98.3777,93.0273 164.378,42.0273 249.5,15.5C 253.348,15.3114 257.015,15.3114 260.5,15.5C 277.252,10.6315 294.252,6.9648 311.5,4.5C 317.958,4.98603 323.791,6.31936 329,8.5C 329.456,7.25591 328.956,6.42258 327.5,6C 332.154,6.61264 336.821,6.27931 341.5,5C 343.196,3.73361 345.029,3.90027 347,5.5C 351.753,4.84617 356.587,4.51284 361.5,4.5C 368.433,4.32392 375.267,4.99059 382,6.5C 383.784,5.69094 385.617,5.02427 387.5,4.5C 401.217,7.13463 415.05,9.46796 429,11.5C 430.684,11.3166 430.85,10.6499 429.5,9.5 Z"/></g>
<g><path style="opacity:0.004" fill="#000100" d="M 445.5,7.5 C 445.897,6.47498 446.563,6.30831 447.5,7C 446.906,7.46434 446.239,7.63101 445.5,7.5 Z"/></g>
<g><path style="opacity:0.31" fill="#444544" d="M 275.5,5.5 C 264.559,8.38791 253.559,11.3879 242.5,14.5C 243.058,13.2101 244.058,12.3768 245.5,12C 250.501,11.8324 255.168,10.4991 259.5,8C 264.676,6.25027 270.009,5.41693 275.5,5.5 Z"/></g>
<g><path style="opacity:0.063" fill="#282828" d="M 394.5,-0.5 C 399.833,-0.5 405.167,-0.5 410.5,-0.5C 411.6,0.558465 412.934,1.3918 414.5,2C 417.5,2.33333 420.5,2.66667 423.5,3C 430.238,6.80593 437.572,8.63927 445.5,8.5C 446.959,8.43255 448.292,8.76589 449.5,9.5C 450.984,11.0737 452.651,12.407 454.5,13.5C 438.12,8.87961 421.454,5.37961 404.5,3C 400.941,2.14791 397.607,0.981246 394.5,-0.5 Z"/></g>
<g><path style="opacity:0.49" fill="#6d6f70" d="M 236.5,16.5 C 233.075,18.5647 229.408,20.2313 225.5,21.5C 228.486,18.5557 232.153,16.889 236.5,16.5 Z"/></g>
<g><path style="opacity:0.663" fill="#98a0a2" d="M 369.5,0.5 C 369.5,0.166667 369.5,-0.166667 369.5,-0.5C 377.833,-0.5 386.167,-0.5 394.5,-0.5C 397.607,0.981246 400.941,2.14791 404.5,3C 421.454,5.37961 438.12,8.87961 454.5,13.5C 463.364,17.7907 472.697,21.124 482.5,23.5C 485.772,24.9565 489.106,26.2898 492.5,27.5C 497.872,31.5193 503.872,34.5193 510.5,36.5C 510.5,36.8333 510.5,37.1667 510.5,37.5C 510.5,38.1667 510.167,38.5 509.5,38.5C 508.391,38.4431 507.391,38.1098 506.5,37.5C 482.757,25.1401 457.757,16.1401 431.5,10.5C 431.158,9.66175 430.492,9.32842 429.5,9.5C 409.671,5.18872 389.671,2.18872 369.5,0.5 Z"/></g>
<g><path style="opacity:0.2" fill="#424343" d="M 454.5,13.5 C 457.839,13.8897 461.173,14.3897 464.5,15C 470.75,17.5691 476.75,20.4025 482.5,23.5C 472.697,21.124 463.364,17.7907 454.5,13.5 Z"/></g>
<g><path style="opacity:0.986" fill="#1f323f" d="M 431.5,10.5 C 457.757,16.1401 482.757,25.1401 506.5,37.5C 506.44,38.0431 506.107,38.3764 505.5,38.5C 500.498,36.6672 496.165,34.5006 492.5,32C 489.518,31.502 486.518,31.3354 483.5,31.5C 483.64,29.8762 482.973,28.7096 481.5,28C 479,27.5 476.5,27 474,26.5C 470.535,23.8506 466.702,21.8506 462.5,20.5C 458.559,22.0198 455.392,21.0198 453,17.5C 452.586,17.9574 452.086,18.2907 451.5,18.5C 444.738,15.7756 438.072,13.1089 431.5,10.5 Z"/></g>
<g><path style="opacity:0.212" fill="#4e5050" d="M 492.5,27.5 C 499.009,29.4211 505.009,32.4211 510.5,36.5C 503.872,34.5193 497.872,31.5193 492.5,27.5 Z"/></g>
<g><path style="opacity:0.706" fill="#a1a9ab" d="M 305.5,-0.5 C 309.5,-0.5 313.5,-0.5 317.5,-0.5C 317.082,0.221579 316.416,0.721579 315.5,1C 316.793,1.49001 318.127,1.65668 319.5,1.5C 295.688,3.72905 272.355,8.39572 249.5,15.5C 164.378,42.0273 98.3777,93.0273 51.5,168.5C 50.9569,168.44 50.6236,168.107 50.5,167.5C 52.9225,162.319 55.5892,157.319 58.5,152.5C 60.8218,151.198 62.1551,149.198 62.5,146.5C 67.9543,140.298 72.9543,133.631 77.5,126.5C 83.763,121.293 89.0963,115.293 93.5,108.5C 94.5,108.167 95.1667,107.5 95.5,106.5C 99.5271,103.14 103.194,99.4729 106.5,95.5C 117.668,85.8349 129.001,76.3349 140.5,67C 152.663,58.9917 164.663,50.8251 176.5,42.5C 190.928,35.4568 205.594,28.6235 220.5,22C 222.134,21.5065 223.801,21.3398 225.5,21.5C 229.408,20.2313 233.075,18.5647 236.5,16.5C 238.297,15.2702 240.297,14.6036 242.5,14.5C 253.559,11.3879 264.559,8.38791 275.5,5.5C 280.833,4.83333 286.167,4.16667 291.5,3.5C 294.91,3.54287 298.243,3.04287 301.5,2C 303.32,1.79959 304.653,0.96626 305.5,-0.5 Z"/></g>
<g><path style="opacity:0.392" fill="#4e4f4e" d="M 176.5,42.5 C 164.663,50.8251 152.663,58.9917 140.5,67C 129.001,76.3349 117.668,85.8349 106.5,95.5C 126.992,73.9984 150.325,56.3318 176.5,42.5 Z"/></g>
<g><path style="opacity:0.165" fill="#444544" d="M 581.5,84.5 C 585.436,86.7657 588.769,89.7657 591.5,93.5C 587.564,91.2343 584.231,88.2343 581.5,84.5 Z"/></g>
<g><path style="opacity:0.745" fill="#80878b" d="M 510.5,37.5 C 515.783,39.1445 520.783,41.3111 525.5,44C 544.802,56.7989 563.469,70.2989 581.5,84.5C 584.231,88.2343 587.564,91.2343 591.5,93.5C 600.201,102.199 608.534,111.199 616.5,120.5C 616.5,121.167 616.5,121.833 616.5,122.5C 586.071,87.7268 550.404,59.7268 509.5,38.5C 510.167,38.5 510.5,38.1667 510.5,37.5 Z"/></g>
<g><path style="opacity:0.007" fill="#121212" d="M 260.5,-0.5 C 272.833,-0.5 285.167,-0.5 297.5,-0.5C 295.364,0.652846 293.364,1.98618 291.5,3.5C 286.167,4.16667 280.833,4.83333 275.5,5.5C 270.009,5.41693 264.676,6.25027 259.5,8C 255.168,10.4991 250.501,11.8324 245.5,12C 244.058,12.3768 243.058,13.2101 242.5,14.5C 240.297,14.6036 238.297,15.2702 236.5,16.5C 232.153,16.889 228.486,18.5557 225.5,21.5C 223.801,21.3398 222.134,21.5065 220.5,22C 205.594,28.6235 190.928,35.4568 176.5,42.5C 150.325,56.3318 126.992,73.9984 106.5,95.5C 101.833,98.1667 98.1667,101.833 95.5,106.5C 95.1667,107.5 94.5,108.167 93.5,108.5C 87.7165,114.042 82.3831,120.042 77.5,126.5C 71.5502,132.374 66.5502,139.041 62.5,146.5C 60.6736,148.147 59.3403,150.147 58.5,152.5C 53.1738,158.476 48.8405,165.143 45.5,172.5C 42.7728,176.577 40.4394,180.91 38.5,185.5C 32.6959,198.447 26.8625,211.447 21,224.5C 17.9705,233.208 15.1371,241.875 12.5,250.5C 12.1667,250.5 11.8333,250.5 11.5,250.5C 11.5442,245.653 12.3775,240.987 14,236.5C 17.5179,228.779 20.5179,220.779 23,212.5C 40.3149,170.913 65.3149,133.246 98,99.5C 98.4828,98.552 98.6495,97.552 98.5,96.5C 99.675,96.719 100.675,96.3857 101.5,95.5C 145.013,53.8023 195.679,24.6356 253.5,8C 252.167,7.66667 250.833,7.33333 249.5,7C 251.868,6.14365 254.202,5.31032 256.5,4.5C 256.5,3.5 256.5,2.5 256.5,1.5C 258.483,1.84316 259.817,1.17649 260.5,-0.5 Z"/></g>
<g><path style="opacity:0.361" fill="#4e4e4e" d="M 106.5,95.5 C 103.194,99.4729 99.5271,103.14 95.5,106.5C 98.1667,101.833 101.833,98.1667 106.5,95.5 Z"/></g>
<g><path style="opacity:0.408" fill="#545655" d="M 93.5,108.5 C 89.0963,115.293 83.763,121.293 77.5,126.5C 82.3831,120.042 87.7165,114.042 93.5,108.5 Z"/></g>
<g><path style="opacity:0.353" fill="#4e504f" d="M 77.5,126.5 C 72.9543,133.631 67.9543,140.298 62.5,146.5C 66.5502,139.041 71.5502,132.374 77.5,126.5 Z"/></g>
<g><path style="opacity:0.011" fill="#151616" d="M 449.5,9.5 C 461.43,11.5737 472.93,15.2404 484,20.5C 486.078,19.057 486.911,19.7237 486.5,22.5C 489.555,23.0362 492.555,23.8695 495.5,25C 541.882,47.1284 582.049,76.9617 616,114.5C 616.333,114.167 616.667,113.833 617,113.5C 617.326,117.153 619.16,119.653 622.5,121C 622.167,121.333 621.833,121.667 621.5,122C 623,122.833 624.167,124 625,125.5C 650.267,157.019 670.267,192.686 685,232.5C 687.948,240.957 690.114,249.624 691.5,258.5C 686.574,246.158 682.074,233.491 678,220.5C 672.542,207.337 666.542,194.337 660,181.5C 647.947,159.384 633.447,139.051 616.5,120.5C 608.534,111.199 600.201,102.199 591.5,93.5C 588.769,89.7657 585.436,86.7657 581.5,84.5C 563.469,70.2989 544.802,56.7989 525.5,44C 520.783,41.3111 515.783,39.1445 510.5,37.5C 510.5,37.1667 510.5,36.8333 510.5,36.5C 505.009,32.4211 499.009,29.4211 492.5,27.5C 489.106,26.2898 485.772,24.9565 482.5,23.5C 476.75,20.4025 470.75,17.5691 464.5,15C 461.173,14.3897 457.839,13.8897 454.5,13.5C 452.651,12.407 450.984,11.0737 449.5,9.5 Z"/></g>
<g><path style="opacity:0.361" fill="#535454" d="M 62.5,146.5 C 62.1551,149.198 60.8218,151.198 58.5,152.5C 59.3403,150.147 60.6736,148.147 62.5,146.5 Z"/></g>
<g><path style="opacity:0.753" fill="#626565" d="M 58.5,152.5 C 55.5892,157.319 52.9225,162.319 50.5,167.5C 50.6236,168.107 50.9569,168.44 51.5,168.5C 51.0679,169.71 50.4013,170.71 49.5,171.5C 49.631,170.761 49.4643,170.094 49,169.5C 47.9609,170.71 46.7942,171.71 45.5,172.5C 48.8405,165.143 53.1738,158.476 58.5,152.5 Z"/></g>
<g><path style="opacity:0.314" fill="#4a4a4b" d="M 45.5,172.5 C 44.376,177.588 42.0427,181.922 38.5,185.5C 40.4394,180.91 42.7728,176.577 45.5,172.5 Z"/></g>
<g><path style="opacity:0.494" fill="#6e7578" d="M 616.5,120.5 C 633.447,139.051 647.947,159.384 660,181.5C 666.542,194.337 672.542,207.337 678,220.5C 682.074,233.491 686.574,246.158 691.5,258.5C 691.336,261.187 691.503,263.854 692,266.5C 694.739,276.753 697.072,287.087 699,297.5C 699.035,305.077 699.869,312.41 701.5,319.5C 701.5,337.5 701.5,355.5 701.5,373.5C 700.539,371.735 700.205,369.735 700.5,367.5C 701.529,341.314 699.863,315.314 695.5,289.5C 683.505,226.749 657.172,171.082 616.5,122.5C 616.5,121.833 616.5,121.167 616.5,120.5 Z"/></g>
<g><path style="opacity:0.647" fill="#868e91" d="M 49.5,171.5 C 33.812,197.885 21.6454,225.885 13,255.5C 12.5065,253.866 12.3398,252.199 12.5,250.5C 15.1371,241.875 17.9705,233.208 21,224.5C 26.8625,211.447 32.6959,198.447 38.5,185.5C 42.0427,181.922 44.376,177.588 45.5,172.5C 46.7942,171.71 47.9609,170.71 49,169.5C 49.4643,170.094 49.631,170.761 49.5,171.5 Z"/></g>
<g><path style="opacity:0.996" fill="#e0d5b7" d="M 319.5,331.5 C 318.5,329.833 317.167,328.5 315.5,327.5C 294.938,308.916 289.605,286.583 299.5,260.5C 300.527,258.816 301.527,257.149 302.5,255.5C 320.134,229.903 343.801,222.403 373.5,233C 405.784,251.677 414.284,278.177 399,312.5C 384.872,333.639 365.039,342.472 339.5,339C 332.503,337.333 325.836,334.833 319.5,331.5 Z"/></g>
<g><path style="opacity:0.012" fill="#141414" d="M 691.5,258.5 C 693.441,262.554 694.941,266.888 696,271.5C 697.501,278.425 698.501,285.425 699,292.5C 699.342,290.381 700.175,290.047 701.5,291.5C 701.5,292.167 701.5,292.833 701.5,293.5C 700.167,295.833 700.167,298.167 701.5,300.5C 701.5,306.833 701.5,313.167 701.5,319.5C 699.869,312.41 699.035,305.077 699,297.5C 697.072,287.087 694.739,276.753 692,266.5C 691.503,263.854 691.336,261.187 691.5,258.5 Z"/></g>
<g><path style="opacity:0.996" fill="#3e351b" d="M 340.5,233.5 C 365.71,231.156 384.544,240.823 397,262.5C 405.637,284.777 401.804,304.611 385.5,322C 364.2,338.755 342.2,339.755 319.5,325C 297.342,304.219 293.842,280.719 309,254.5C 317.195,243.834 327.695,236.834 340.5,233.5 Z"/></g>
<g><path style="opacity:0.996" fill="#e0d5b8" d="M 343.5,235.5 C 372.803,234.052 391.303,247.385 399,275.5C 401.109,295.182 394.609,311.349 379.5,324C 366.953,331.927 353.286,334.594 338.5,332C 311.271,322.069 299.437,302.569 303,273.5C 308.673,252.323 322.173,239.656 343.5,235.5 Z"/></g>
<g><path style="opacity:0.996" fill="#2d3736" d="M 390.5,302.5 C 391.459,299.616 391.625,296.949 391,294.5C 389.871,296.141 388.371,297.141 386.5,297.5C 391.205,288.434 388.538,284.267 378.5,285C 374.984,286.256 371.984,288.256 369.5,291C 368.207,291.49 366.873,291.657 365.5,291.5C 365.287,298.211 365.62,304.877 366.5,311.5C 370.67,315.435 374.837,315.435 379,311.5C 379.495,309.527 379.662,307.527 379.5,305.5C 380.586,305.62 381.253,306.287 381.5,307.5C 380.934,309.697 380.268,311.864 379.5,314C 379.836,315.03 380.503,315.53 381.5,315.5C 380.5,317.167 379.167,318.5 377.5,319.5C 377.5,318.167 377.5,316.833 377.5,315.5C 371.421,314.867 367.088,317.201 364.5,322.5C 365.167,322.833 365.833,323.167 366.5,323.5C 369.85,322.157 373.183,320.823 376.5,319.5C 356.288,332.687 337.122,331.354 319,315.5C 307.849,302.756 304.182,288.089 308,271.5C 311.85,259.331 319.35,250.164 330.5,244C 353.495,235.372 372.662,240.539 388,259.5C 394.938,270.698 396.938,282.698 394,295.5C 392.787,297.925 391.621,300.259 390.5,302.5 Z"/></g>
<g><path style="opacity:1" fill="#233944" d="M 308.5,274.5 C 310.204,276.775 311.538,279.441 312.5,282.5C 311.477,286.113 310.644,289.779 310,293.5C 308.098,290.663 307.265,287.496 307.5,284C 307.744,280.814 308.077,277.647 308.5,274.5 Z"/></g>
<g><path style="opacity:0.996" fill="#dcd7c1" d="M 343.5,272.5 C 347.514,272.334 351.514,272.501 355.5,273C 358.306,274.305 359.14,276.472 358,279.5C 354.5,282.064 355,283.731 359.5,284.5C 361.484,289.868 359.817,293.202 354.5,294.5C 350.445,294.824 346.445,294.491 342.5,293.5C 343.744,290.362 344.411,287.028 344.5,283.5C 344.483,280.087 343.816,277.087 342.5,274.5C 342.328,273.508 342.662,272.842 343.5,272.5 Z"/></g>
<g><path style="opacity:0.996" fill="#30362b" d="M 348.5,274.5 C 353.894,273.554 355.561,275.554 353.5,280.5C 352.675,281.386 351.675,281.719 350.5,281.5C 350.5,282.5 350.5,283.5 350.5,284.5C 353.93,283.755 355.597,285.089 355.5,288.5C 355.43,289.772 355.097,290.938 354.5,292C 352.866,292.494 351.199,292.66 349.5,292.5C 348.759,286.529 348.425,280.529 348.5,274.5 Z"/></g>
<g><path style="opacity:0.996" fill="#e2d6b7" d="M 348.5,265.5 C 343.838,263.744 339.671,261.077 336,257.5C 336.624,262.777 336.457,268.111 335.5,273.5C 335.5,274.5 335.5,275.5 335.5,276.5C 330.746,278.376 326.079,280.542 321.5,283C 315.865,284.536 312.865,282.369 312.5,276.5C 312.437,274.486 313.103,272.819 314.5,271.5C 316.05,270.559 317.716,269.893 319.5,269.5C 321.604,269.799 323.604,269.466 325.5,268.5C 324.478,267.646 323.645,266.646 323,265.5C 321.738,261.091 322.572,257.257 325.5,254C 328.669,253.022 331.503,253.522 334,255.5C 334.194,247.297 338.027,244.797 345.5,248C 347.709,249.873 349.542,252.04 351,254.5C 353.876,246.889 358.876,244.889 366,248.5C 367.189,252.709 366.356,256.376 363.5,259.5C 359.326,262.088 354.993,264.421 350.5,266.5C 349.817,266.137 349.15,265.804 348.5,265.5 Z"/></g>
<g><path style="opacity:0.996" fill="#dfd4b4" d="M 382.5,269.5 C 384.05,270.441 385.716,271.107 387.5,271.5C 390.697,280.489 387.364,284.323 377.5,283C 374.638,282.07 372.305,280.403 370.5,278C 368.975,276.991 367.308,276.491 365.5,276.5C 365.334,270.824 365.501,265.157 366,259.5C 368.91,252.734 373.243,251.734 379,256.5C 379.971,260.865 379.138,264.865 376.5,268.5C 378.396,269.466 380.396,269.799 382.5,269.5 Z"/></g>
<g><path style="opacity:0.996" fill="#3b351b" d="M 374.5,275.5 C 377.304,274.362 380.304,274.195 383.5,275C 384.337,276.011 384.67,277.178 384.5,278.5C 380.662,278.978 377.329,277.978 374.5,275.5 Z"/></g>
<g><path style="opacity:0.996" fill="#403b22" d="M 327.5,258.5 C 328.822,258.33 329.989,258.663 331,259.5C 333.152,268.176 330.318,274.343 322.5,278C 320.833,278.667 319.167,278.667 317.5,278C 316.167,277 316.167,276 317.5,275C 329.189,275.668 332.189,271.002 326.5,261C 326.743,260.098 327.077,259.265 327.5,258.5 Z"/></g>
<g><path style="opacity:0.996" fill="#1f3647" d="M 348.5,265.5 C 350.203,267.141 352.37,268.141 355,268.5C 356.719,265.781 359.053,263.781 362,262.5C 362.333,262.833 362.667,263.167 363,263.5C 363.012,268.684 363.845,273.684 365.5,278.5C 369.603,278.604 372.269,280.604 373.5,284.5C 371.171,286.01 369.171,287.844 367.5,290C 365.339,290.722 363.672,290.055 362.5,288C 363.793,287.51 365.127,287.343 366.5,287.5C 366.657,286.127 366.49,284.793 366,283.5C 364.847,285.497 363.347,285.83 361.5,284.5C 361.078,280.29 360.078,276.29 358.5,272.5C 353.348,271.186 348.348,271.186 343.5,272.5C 342.662,272.842 342.328,273.508 342.5,274.5C 342.617,279.922 342.284,285.422 341.5,291C 335.925,291.204 331.591,289.037 328.5,284.5C 329.962,280.245 332.962,277.578 337.5,276.5C 337.058,275.261 336.391,274.261 335.5,273.5C 336.457,268.111 336.624,262.777 336,257.5C 339.671,261.077 343.838,263.744 348.5,265.5 Z"/></g>
<g><path style="opacity:1" fill="#1f3844" d="M 319.5,269.5 C 317.716,269.893 316.05,270.559 314.5,271.5C 313.5,271.5 312.5,271.5 311.5,271.5C 312.044,264.536 315.044,258.87 320.5,254.5C 320.664,258.35 320.997,262.183 321.5,266C 320.377,267.044 319.044,267.71 317.5,268C 318.416,268.278 319.082,268.778 319.5,269.5 Z"/></g>
<g><path style="opacity:0.996" fill="#213647" d="M 387.5,271.5 C 385.716,271.107 384.05,270.441 382.5,269.5C 381.569,267.967 380.902,266.3 380.5,264.5C 381.71,261.807 381.71,259.141 380.5,256.5C 381.365,255.417 382.365,255.251 383.5,256C 387.545,261.037 390.211,266.703 391.5,273C 390.135,272.857 388.802,272.357 387.5,271.5 Z"/></g>
<g><path style="opacity:0.996" fill="#423a23" d="M 371.5,258.5 C 372.5,258.5 373.5,258.5 374.5,258.5C 373.904,263.014 372.737,267.348 371,271.5C 368.874,266.961 369.04,262.627 371.5,258.5 Z"/></g>
<g><path style="opacity:0.997" fill="#403b22" d="M 339.5,250.5 C 340.552,250.351 341.552,250.517 342.5,251C 344.167,253.333 345.833,255.667 347.5,258C 352.722,259.556 356.055,257.723 357.5,252.5C 358.736,251.754 360.07,251.421 361.5,251.5C 361.822,253.722 361.155,255.556 359.5,257C 352.91,261.771 346.576,261.438 340.5,256C 339.594,254.301 339.261,252.467 339.5,250.5 Z"/></g>
<g><path style="opacity:0.004" fill="#000100" d="M 701.5,286.5 C 701.5,287.5 701.5,288.5 701.5,289.5C 700.167,288.5 700.167,287.5 701.5,286.5 Z"/></g>
<g><path style="opacity:0.01" fill="#161616" d="M 11.5,250.5 C 11.5,252.5 11.5,254.5 11.5,256.5C 9.60506,263.037 7.77173,269.703 6,276.5C 4.44521,288.735 2.27854,300.735 -0.5,312.5C -0.5,304.833 -0.5,297.167 -0.5,289.5C 0.396953,288.402 1.23029,288.402 2,289.5C 3.43717,281.221 4.43717,272.888 5,264.5C 5.33333,264.833 5.66667,265.167 6,265.5C 7.88521,261.043 9.21854,256.376 10,251.5C 10.3826,250.944 10.8826,250.611 11.5,250.5 Z"/></g>
<g><path style="opacity:0.999" fill="#e3d6b6" d="M 326.5,286.5 C 328.843,289.33 331.843,291.163 335.5,292C 336.252,292.671 336.586,293.504 336.5,294.5C 335.549,295.919 335.216,297.585 335.5,299.5C 335.854,303.637 335.354,307.637 334,311.5C 332.266,313.451 330.099,314.451 327.5,314.5C 326.178,314.67 325.011,314.337 324,313.5C 320.305,308.182 320.805,303.349 325.5,299C 320.578,299.379 316.412,297.879 313,294.5C 311.542,290.219 312.708,287.053 316.5,285C 319.962,284.54 323.296,285.04 326.5,286.5 Z"/></g>
<g><path style="opacity:0.996" fill="#38301d" d="M 327.5,293.5 C 324.833,293.5 322.167,293.5 319.5,293.5C 317.468,292.952 316.468,291.619 316.5,289.5C 320.929,288.972 324.596,290.305 327.5,293.5 Z"/></g>
<g><path style="opacity:0.996" fill="#e3d8b6" d="M 386.5,297.5 C 386.167,297.5 385.833,297.5 385.5,297.5C 382.213,298.161 378.88,298.661 375.5,299C 377.07,300.397 378.404,301.897 379.5,303.5C 379.5,304.167 379.5,304.833 379.5,305.5C 379.662,307.527 379.495,309.527 379,311.5C 374.837,315.435 370.67,315.435 366.5,311.5C 365.62,304.877 365.287,298.211 365.5,291.5C 366.873,291.657 368.207,291.49 369.5,291C 371.984,288.256 374.984,286.256 378.5,285C 388.538,284.267 391.205,288.434 386.5,297.5 Z"/></g>
<g><path style="opacity:0.522" fill="#717779" d="M 11.5,256.5 C 12.1239,256.917 12.4573,257.584 12.5,258.5C 11.1641,263.519 9.83079,268.519 8.5,273.5C 5.60328,287.877 3.26995,302.21 1.5,316.5C 1.63101,315.761 1.46434,315.094 1,314.5C 0.721579,315.416 0.221579,316.082 -0.5,316.5C -0.5,315.167 -0.5,313.833 -0.5,312.5C 2.27854,300.735 4.44521,288.735 6,276.5C 7.77173,269.703 9.60506,263.037 11.5,256.5 Z"/></g>
<g><path style="opacity:0.996" fill="#26373b" d="M 319.5,331.5 C 325.836,334.833 332.503,337.333 339.5,339C 365.039,342.472 384.872,333.639 399,312.5C 414.284,278.177 405.784,251.677 373.5,233C 343.801,222.403 320.134,229.903 302.5,255.5C 302.433,253.599 302.767,251.766 303.5,250C 305.478,248.022 307.478,246.022 309.5,244C 309.167,243.667 308.833,243.333 308.5,243C 312.108,239.597 316.108,236.931 320.5,235C 321.13,233.108 322.13,231.441 323.5,230C 326.702,229.802 329.702,228.969 332.5,227.5C 333.641,226.575 333.641,225.741 332.5,225C 333.025,224.308 333.692,223.808 334.5,223.5C 336.454,224.68 338.621,225.346 341,225.5C 346.496,224.232 351.996,224.232 357.5,225.5C 362.981,224.523 368.315,223.857 373.5,223.5C 374.167,223.833 374.833,224.167 375.5,224.5C 373.257,225.474 370.924,225.808 368.5,225.5C 368.5,226.5 368.5,227.5 368.5,228.5C 373.613,229.388 378.28,231.388 382.5,234.5C 383.167,234.167 383.833,233.833 384.5,233.5C 386.321,234.728 387.321,236.394 387.5,238.5C 388.873,238.343 390.207,238.51 391.5,239C 390.446,240.388 390.28,241.888 391,243.5C 395.301,246.607 398.135,250.607 399.5,255.5C 400.822,255.33 401.989,255.663 403,256.5C 404.629,260.746 406.629,264.746 409,268.5C 409.272,280.168 409.105,291.834 408.5,303.5C 407.167,303.5 405.833,303.5 404.5,303.5C 403.824,307.187 402.324,310.52 400,313.5C 399.667,315.5 399.333,317.5 399,319.5C 397.644,320.38 396.144,320.714 394.5,320.5C 394.509,322.308 394.009,323.975 393,325.5C 385.386,331.124 376.886,336.124 367.5,340.5C 356.921,342.275 346.254,342.941 335.5,342.5C 335.5,341.5 335.5,340.5 335.5,339.5C 330.228,338.37 325.228,336.37 320.5,333.5C 319.702,333.043 319.369,332.376 319.5,331.5 Z"/></g>
<g><path style="opacity:0.996" fill="#22363c" d="M 342.5,274.5 C 343.816,277.087 344.483,280.087 344.5,283.5C 344.411,287.028 343.744,290.362 342.5,293.5C 346.445,294.491 350.445,294.824 354.5,294.5C 357.187,294.336 359.854,294.503 362.5,295C 363.943,298.278 363.776,301.444 362,304.5C 359.619,303.565 357.119,303.232 354.5,303.5C 352.956,303.297 351.622,302.63 350.5,301.5C 346.593,303.691 342.593,305.691 338.5,307.5C 336.656,305.721 335.99,303.388 336.5,300.5C 338.149,301.473 339.816,302.473 341.5,303.5C 345.098,301.646 345.432,299.146 342.5,296C 340.414,295.685 338.414,295.185 336.5,294.5C 336.586,293.504 336.252,292.671 335.5,292C 331.843,291.163 328.843,289.33 326.5,286.5C 326.833,285.5 327.5,284.833 328.5,284.5C 331.591,289.037 335.925,291.204 341.5,291C 342.284,285.422 342.617,279.922 342.5,274.5 Z"/></g>
<g><path style="opacity:0.996" fill="#8c7d5b" d="M 319.5,293.5 C 322.167,293.5 324.833,293.5 327.5,293.5C 330.083,294.985 331.416,297.318 331.5,300.5C 330.833,300.5 330.167,300.5 329.5,300.5C 329.822,298.278 329.155,296.444 327.5,295C 324.635,294.817 321.969,294.317 319.5,293.5 Z"/></g>
<g><path style="opacity:0.996" fill="#363520" d="M 385.5,297.5 C 384.653,298.966 383.32,299.8 381.5,300C 380.177,300.816 379.511,301.983 379.5,303.5C 378.404,301.897 377.07,300.397 375.5,299C 378.88,298.661 382.213,298.161 385.5,297.5 Z"/></g>
<g><path style="opacity:0.996" fill="#20354e" d="M 336.5,294.5 C 338.414,295.185 340.414,295.685 342.5,296C 345.432,299.146 345.098,301.646 341.5,303.5C 339.816,302.473 338.149,301.473 336.5,300.5C 336.5,299.833 336.167,299.5 335.5,299.5C 335.216,297.585 335.549,295.919 336.5,294.5 Z"/></g>
<g><path style="opacity:0.996" fill="#444025" d="M 378.5,289.5 C 380.977,289.051 382.977,289.717 384.5,291.5C 383.91,292.799 382.91,293.632 381.5,294C 378.22,294.056 375.22,294.889 372.5,296.5C 372.013,297.446 371.68,298.446 371.5,299.5C 373.522,302.524 374.522,305.857 374.5,309.5C 373.178,309.67 372.011,309.337 371,308.5C 369.122,303.735 369.456,299.069 372,294.5C 374.352,292.97 376.519,291.303 378.5,289.5 Z"/></g>
<g><path style="opacity:0.996" fill="#423821" d="M 329.5,300.5 C 330.167,300.5 330.833,300.5 331.5,300.5C 331.726,303.249 331.393,305.916 330.5,308.5C 329.311,309.429 327.978,309.762 326.5,309.5C 326.647,306.208 327.647,303.208 329.5,300.5 Z"/></g>
<g><path style="opacity:0.996" fill="#223744" d="M 390.5,302.5 C 388.73,307.713 385.73,312.047 381.5,315.5C 380.503,315.53 379.836,315.03 379.5,314C 380.268,311.864 380.934,309.697 381.5,307.5C 381.253,306.287 380.586,305.62 379.5,305.5C 379.5,304.833 379.5,304.167 379.5,303.5C 379.511,301.983 380.177,300.816 381.5,300C 383.32,299.8 384.653,298.966 385.5,297.5C 385.833,297.5 386.167,297.5 386.5,297.5C 388.371,297.141 389.871,296.141 391,294.5C 391.625,296.949 391.459,299.616 390.5,302.5 Z"/></g>
<g><path style="opacity:0.996" fill="#e2d8b9" d="M 354.5,303.5 C 358.81,305.658 362.81,308.325 366.5,311.5C 367.507,319.328 364.174,322.494 356.5,321C 353.881,318.879 351.881,316.379 350.5,313.5C 349.041,315.583 347.708,317.75 346.5,320C 340.5,323.151 336.5,321.651 334.5,315.5C 334.776,312.281 336.109,309.615 338.5,307.5C 342.593,305.691 346.593,303.691 350.5,301.5C 351.622,302.63 352.956,303.297 354.5,303.5 Z"/></g>
<g><path style="opacity:0.996" fill="#484126" d="M 348.5,307.5 C 352.44,307.758 356.107,308.924 359.5,311C 361.607,312.264 362.607,314.097 362.5,316.5C 361.127,316.657 359.793,316.49 358.5,316C 352.616,307.091 347.282,307.424 342.5,317C 341.552,317.483 340.552,317.649 339.5,317.5C 339.215,315.712 339.548,314.045 340.5,312.5C 343.011,310.457 345.678,308.791 348.5,307.5 Z"/></g>
<g><path style="opacity:0.996" fill="#454831" d="M 335.5,299.5 C 336.167,299.5 336.5,299.833 336.5,300.5C 335.99,303.388 336.656,305.721 338.5,307.5C 336.109,309.615 334.776,312.281 334.5,315.5C 331.928,316.708 329.594,316.375 327.5,314.5C 330.099,314.451 332.266,313.451 334,311.5C 335.354,307.637 335.854,303.637 335.5,299.5 Z"/></g>
<g><path style="opacity:0.996" fill="#2a3532" d="M 299.5,260.5 C 289.605,286.583 294.938,308.916 315.5,327.5C 315.44,328.043 315.107,328.376 314.5,328.5C 311.698,327.288 309.198,325.621 307,323.5C 293.172,304.779 290.005,284.279 297.5,262C 297.836,260.97 298.503,260.47 299.5,260.5 Z"/></g>
<g><path style="opacity:0.996" fill="#223642" d="M 377.5,319.5 C 377.167,319.5 376.833,319.5 376.5,319.5C 373.183,320.823 369.85,322.157 366.5,323.5C 365.833,323.167 365.167,322.833 364.5,322.5C 367.088,317.201 371.421,314.867 377.5,315.5C 377.5,316.833 377.5,318.167 377.5,319.5 Z"/></g>
<g><path style="opacity:0.996" fill="#1c3949" d="M 349.5,318.5 C 351.395,319.703 353.395,320.869 355.5,322C 357.007,322.837 357.507,324.004 357,325.5C 352.55,326.8 348.05,326.8 343.5,325.5C 343.291,324.914 342.957,324.414 342.5,324C 345.595,323.065 347.929,321.231 349.5,318.5 Z"/></g>
<g><path style="opacity:0.827" fill="#99a6ac" d="M 1.5,316.5 C 0.180521,339.501 0.180521,362.501 1.5,385.5C 1.06233,386.506 0.395666,386.506 -0.5,385.5C -0.5,362.5 -0.5,339.5 -0.5,316.5C 0.221579,316.082 0.721579,315.416 1,314.5C 1.46434,315.094 1.63101,315.761 1.5,316.5 Z"/></g>
<g><path style="opacity:0.996" fill="#293433" d="M 207.5,365.5 C 203.168,363.001 198.501,361.668 193.5,361.5C 192.833,361.5 192.167,361.5 191.5,361.5C 181.013,360.506 170.346,360.172 159.5,360.5C 159.5,362.5 159.5,364.5 159.5,366.5C 162.368,366.085 164.535,367.085 166,369.5C 166.667,386.5 166.667,403.5 166,420.5C 164.688,423.238 162.522,424.572 159.5,424.5C 160.833,423.067 162.333,421.733 164,420.5C 164.333,419.167 164.667,417.833 165,416.5C 165.667,402.5 165.667,388.5 165,374.5C 164.333,372.5 163.667,370.5 163,368.5C 161.644,367.62 160.144,367.286 158.5,367.5C 158.5,364.167 158.5,360.833 158.5,357.5C 172.475,358.263 186.475,358.763 200.5,359C 201.5,359.333 202.5,359.667 203.5,360C 205.21,361.651 206.544,363.484 207.5,365.5 Z"/></g>
<g><path style="opacity:0.996" fill="#3b4035" d="M 447.5,360.5 C 447.5,360.833 447.5,361.167 447.5,361.5C 436.83,360.198 426.164,360.198 415.5,361.5C 415.611,360.883 415.944,360.383 416.5,360C 426.997,358.161 437.331,358.328 447.5,360.5 Z"/></g>
<g><path style="opacity:0.996" fill="#f4d9a6" d="M 255.5,366.5 C 255.5,366.833 255.5,367.167 255.5,367.5C 254.209,387.354 254.209,407.354 255.5,427.5C 250.063,427.834 245.396,427.501 241.5,426.5C 243.92,426.708 246.253,426.374 248.5,425.5C 251.912,410.668 252.912,395.668 251.5,380.5C 251.697,378.318 252.364,376.318 253.5,374.5C 252.934,372.303 252.268,370.136 251.5,368C 252.022,367.05 252.689,366.216 253.5,365.5C 250.721,363.703 247.721,363.203 244.5,364C 245.478,370.41 245.811,376.91 245.5,383.5C 246.5,383.5 247.5,383.5 248.5,383.5C 247.205,395.347 246.372,407.347 246,419.5C 245.8,421.32 244.966,422.653 243.5,423.5C 244.474,404.88 244.808,386.213 244.5,367.5C 243.5,367.5 242.5,367.5 241.5,367.5C 240.058,366.18 239.392,364.514 239.5,362.5C 244.87,362.392 250.203,362.725 255.5,363.5C 255.5,364.5 255.5,365.5 255.5,366.5 Z"/></g>
<g><path style="opacity:0.996" fill="#e4d5b3" d="M 191.5,361.5 C 189.516,361.383 187.85,362.05 186.5,363.5C 197.302,367.104 201.302,374.437 198.5,385.5C 200.828,386.724 203.161,386.724 205.5,385.5C 207.19,379.932 207.69,374.266 207,368.5C 202.72,365.446 198.22,363.112 193.5,361.5C 198.501,361.668 203.168,363.001 207.5,365.5C 207.427,367.027 208.094,368.027 209.5,368.5C 212.999,380.302 208.999,387.968 197.5,391.5C 195.202,389.599 192.868,390.099 190.5,393C 194.633,396.466 198.466,400.299 202,404.5C 202.81,408.358 202.643,412.024 201.5,415.5C 202.399,402.73 196.399,396.397 183.5,396.5C 183.5,394.833 183.5,393.167 183.5,391.5C 195.595,390.256 199.761,383.923 196,372.5C 193.981,369.288 191.147,367.622 187.5,367.5C 185.052,366.527 182.385,366.194 179.5,366.5C 179.333,384.17 179.5,401.836 180,419.5C 180.11,421.848 181.277,423.348 183.5,424C 186.146,424.497 188.813,424.664 191.5,424.5C 191.5,425.5 191.5,426.5 191.5,427.5C 201.269,427.878 208.436,423.878 213,415.5C 213.431,409.601 212.431,403.935 210,398.5C 206.723,397.276 203.89,395.609 201.5,393.5C 202.5,393.5 203.5,393.5 204.5,393.5C 204.842,394.338 205.508,394.672 206.5,394.5C 215.251,399.92 217.751,407.586 214,417.5C 208.98,425.262 201.813,429.262 192.5,429.5C 181.116,430.144 170.116,429.477 159.5,427.5C 159.5,426.5 159.5,425.5 159.5,424.5C 162.522,424.572 164.688,423.238 166,420.5C 166.667,403.5 166.667,386.5 166,369.5C 164.535,367.085 162.368,366.085 159.5,366.5C 159.5,364.5 159.5,362.5 159.5,360.5C 170.346,360.172 181.013,360.506 191.5,361.5 Z"/></g>
<g><path style="opacity:0.996" fill="#2b3536" d="M 284.5,392.5 C 291.165,385.516 292.165,377.849 287.5,369.5C 284.065,364.936 279.399,362.102 273.5,361C 260.838,360.5 248.171,360.333 235.5,360.5C 235.5,362.5 235.5,364.5 235.5,366.5C 237.292,366.366 238.958,366.699 240.5,367.5C 241.778,385.152 241.778,402.818 240.5,420.5C 238.625,421.409 237.292,422.743 236.5,424.5C 235.662,424.842 235.328,425.508 235.5,426.5C 234.732,427.263 234.232,428.263 234,429.5C 233.167,428.667 232.333,427.833 231.5,427C 234.108,424.301 236.608,421.468 239,418.5C 240.464,401.825 240.631,385.158 239.5,368.5C 237.856,368.714 236.356,368.38 235,367.5C 234.179,364.446 234.345,361.446 235.5,358.5C 236.293,358.069 237.127,357.735 238,357.5C 249.133,358.301 260.3,358.801 271.5,359C 276.902,359.597 281.902,361.264 286.5,364C 287.573,366.657 289.24,368.823 291.5,370.5C 293.248,378.091 291.915,385.091 287.5,391.5C 286.675,392.386 285.675,392.719 284.5,392.5 Z"/></g>
<g><path style="opacity:0.996" fill="#e6d7b6" d="M 287.5,369.5 C 285.547,368.001 283.88,368.335 282.5,370.5C 281.833,368.833 281.167,367.167 280.5,365.5C 275.814,362.812 270.814,361.979 265.5,363C 266.823,363.816 267.489,364.983 267.5,366.5C 263.5,366.5 259.5,366.5 255.5,366.5C 255.5,365.5 255.5,364.5 255.5,363.5C 250.203,362.725 244.87,362.392 239.5,362.5C 239.392,364.514 240.058,366.18 241.5,367.5C 241.167,367.5 240.833,367.5 240.5,367.5C 238.958,366.699 237.292,366.366 235.5,366.5C 235.5,364.5 235.5,362.5 235.5,360.5C 248.171,360.333 260.838,360.5 273.5,361C 279.399,362.102 284.065,364.936 287.5,369.5 Z"/></g>
<g><path style="opacity:0.996" fill="#e7d8b4" d="M 447.5,361.5 C 447.5,361.833 447.5,362.167 447.5,362.5C 443.818,362.335 440.152,362.501 436.5,363C 438.137,365.31 440.304,366.81 443,367.5C 443.483,368.448 443.649,369.448 443.5,370.5C 435.755,364.881 427.421,364.047 418.5,368C 416.63,370.04 414.63,371.873 412.5,373.5C 412.351,372.448 412.517,371.448 413,370.5C 420.896,364.119 419.396,362.952 408.5,367C 405.111,372.29 401.611,377.457 398,382.5C 395.596,393.53 396.596,404.196 401,414.5C 405.272,422.287 411.772,426.62 420.5,427.5C 420.028,424.185 418.195,421.851 415,420.5C 414.209,419.255 413.709,417.922 413.5,416.5C 420.687,424.28 429.354,426.446 439.5,423C 440.126,422.25 440.626,421.416 441,420.5C 441.667,415.167 441.667,409.833 441,404.5C 440.283,403.956 439.783,403.289 439.5,402.5C 438.699,400.958 438.366,399.292 438.5,397.5C 444.167,397.5 449.833,397.5 455.5,397.5C 455.371,399.216 455.038,400.883 454.5,402.5C 453.41,409.473 453.243,416.473 454,423.5C 440.833,430.814 426.999,432.314 412.5,428C 397.343,417.9 391.509,403.734 395,385.5C 398.055,374.278 404.888,366.278 415.5,361.5C 426.164,360.198 436.83,360.198 447.5,361.5 Z"/></g>
<g><path style="opacity:0.996" fill="#1b3242" d="M 8.5,273.5 C 9.37644,273.369 10.0431,273.702 10.5,274.5C 9.5123,277.45 8.67896,280.45 8,283.5C 7.82819,291.084 6.99486,298.584 5.5,306C 6.82332,309.213 6.65666,312.379 5,315.5C 4.34569,314.304 3.84569,314.304 3.5,315.5C 3.99627,327.262 5.3296,338.928 7.5,350.5C 7.33333,352.833 7.16667,355.167 7,357.5C 6.66667,354.167 6.33333,350.833 6,347.5C 3.01903,369.87 4.1857,391.704 9.5,413C 9.16667,414.667 8.83333,416.333 8.5,418C 10.4317,429.843 13.4317,441.343 17.5,452.5C 18.3333,453.5 19.1667,454.5 20,455.5C 20.7139,464.306 23.0472,472.639 27,480.5C 27.3333,480.167 27.6667,479.833 28,479.5C 28.665,484.322 29.8317,488.988 31.5,493.5C 25.0891,481.456 19.9224,468.789 16,455.5C 12.7829,441.959 9.2829,428.625 5.5,415.5C 4.61398,405.307 3.28065,395.307 1.5,385.5C 0.180521,362.501 0.180521,339.501 1.5,316.5C 3.26995,302.21 5.60328,287.877 8.5,273.5 Z"/></g>
<g><path style="opacity:0.996" fill="#e0d4b9" d="M 447.5,362.5 C 449.258,362.877 450.925,363.544 452.5,364.5C 453.662,369.467 453.829,374.467 453,379.5C 451.991,380.658 450.658,381.325 449,381.5C 447.615,381.486 446.449,381.152 445.5,380.5C 445.46,377.012 444.793,373.679 443.5,370.5C 445.017,370.511 446.184,371.177 447,372.5C 447.495,374.473 447.662,376.473 447.5,378.5C 448.5,378.5 449.5,378.5 450.5,378.5C 450.756,374.138 450.923,369.805 451,365.5C 449.271,365.026 448.105,364.026 447.5,362.5 Z"/></g>
<g><path style="opacity:0.996" fill="#f2d7a4" d="M 447.5,362.5 C 448.105,364.026 449.271,365.026 451,365.5C 450.923,369.805 450.756,374.138 450.5,378.5C 449.5,378.5 448.5,378.5 447.5,378.5C 447.662,376.473 447.495,374.473 447,372.5C 446.184,371.177 445.017,370.511 443.5,370.5C 443.649,369.448 443.483,368.448 443,367.5C 440.304,366.81 438.137,365.31 436.5,363C 440.152,362.501 443.818,362.335 447.5,362.5 Z"/></g>
<g><path style="opacity:0.996" fill="#f5d8a1" d="M 191.5,361.5 C 192.167,361.5 192.833,361.5 193.5,361.5C 198.22,363.112 202.72,365.446 207,368.5C 207.69,374.266 207.19,379.932 205.5,385.5C 203.161,386.724 200.828,386.724 198.5,385.5C 201.302,374.437 197.302,367.104 186.5,363.5C 187.85,362.05 189.516,361.383 191.5,361.5 Z"/></g>
<g><path style="opacity:0.996" fill="#223843" d="M 435.5,368.5 C 437.701,369.739 439.868,371.072 442,372.5C 442.738,375.501 443.904,378.168 445.5,380.5C 446.449,381.152 447.615,381.486 449,381.5C 450.658,381.325 451.991,380.658 453,379.5C 453.829,374.467 453.662,369.467 452.5,364.5C 450.925,363.544 449.258,362.877 447.5,362.5C 447.5,362.167 447.5,361.833 447.5,361.5C 447.5,361.167 447.5,360.833 447.5,360.5C 448.675,360.719 449.675,360.386 450.5,359.5C 449.137,358.107 448.304,356.441 448,354.5C 440.758,353.018 440.925,351.684 448.5,350.5C 448.736,351.247 449.07,352.08 449.5,353C 457.625,354.251 459.958,358.584 456.5,366C 457.783,369.195 457.45,372.195 455.5,375C 456.986,377.589 457.653,380.423 457.5,383.5C 451.271,382.978 445.271,383.644 439.5,385.5C 437.077,384.579 435.077,383.079 433.5,381C 429.623,380.271 425.789,380.438 422,381.5C 416.316,380.333 416.149,378.5 421.5,376C 424.282,375.055 426.949,374.888 429.5,375.5C 430.647,375.182 431.481,374.516 432,373.5C 434.643,374.976 436.81,376.976 438.5,379.5C 442.771,375.695 442.104,372.862 436.5,371C 435.748,370.329 435.414,369.496 435.5,368.5 Z"/></g>
<g><path style="opacity:0.997" fill="#f7d89a" d="M 241.5,426.5 C 241.427,424.973 242.094,423.973 243.5,423.5C 244.966,422.653 245.8,421.32 246,419.5C 246.372,407.347 247.205,395.347 248.5,383.5C 247.5,383.5 246.5,383.5 245.5,383.5C 245.811,376.91 245.478,370.41 244.5,364C 247.721,363.203 250.721,363.703 253.5,365.5C 252.689,366.216 252.022,367.05 251.5,368C 252.268,370.136 252.934,372.303 253.5,374.5C 252.364,376.318 251.697,378.318 251.5,380.5C 252.912,395.668 251.912,410.668 248.5,425.5C 246.253,426.374 243.92,426.708 241.5,426.5 Z"/></g>
<g><path style="opacity:0.996" fill="#2c302a" d="M 209.5,368.5 C 210.809,370.571 211.475,373.071 211.5,376C 212.426,382.309 210.259,387.143 205,390.5C 204.517,391.448 204.351,392.448 204.5,393.5C 203.5,393.5 202.5,393.5 201.5,393.5C 200.167,392.833 198.833,392.167 197.5,391.5C 208.999,387.968 212.999,380.302 209.5,368.5 Z"/></g>
<g><path style="opacity:0.996" fill="#2d3228" d="M 240.5,367.5 C 240.833,367.5 241.167,367.5 241.5,367.5C 242.64,385.79 242.807,404.123 242,422.5C 240.416,423.861 238.582,424.528 236.5,424.5C 237.292,422.743 238.625,421.409 240.5,420.5C 241.778,402.818 241.778,385.152 240.5,367.5 Z"/></g>
<g><path style="opacity:0.996" fill="#2f3632" d="M 187.5,367.5 C 191.147,367.622 193.981,369.288 196,372.5C 199.761,383.923 195.595,390.256 183.5,391.5C 183.5,393.167 183.5,394.833 183.5,396.5C 196.399,396.397 202.399,402.73 201.5,415.5C 199.413,419.922 196.08,422.922 191.5,424.5C 188.813,424.664 186.146,424.497 183.5,424C 181.277,423.348 180.11,421.848 180,419.5C 179.5,401.836 179.333,384.17 179.5,366.5C 182.385,366.194 185.052,366.527 187.5,367.5 Z"/></g>
<g><path style="opacity:0.996" fill="#1e384a" d="M 187.5,367.5 C 188.659,370.092 190.659,371.759 193.5,372.5C 194.212,375.648 194.879,378.814 195.5,382C 195.01,383.982 194.01,385.649 192.5,387C 188.973,387.145 185.64,387.978 182.5,389.5C 181.503,382.197 181.169,374.863 181.5,367.5C 183.5,367.5 185.5,367.5 187.5,367.5 Z"/></g>
<g><path style="opacity:0.996" fill="#e3d8b9" d="M 410.5,377.5 C 405.956,390.887 406.956,403.887 413.5,416.5C 411.983,416.489 410.816,415.823 410,414.5C 406.021,402.62 405.521,390.62 408.5,378.5C 409.183,378.137 409.85,377.804 410.5,377.5 Z"/></g>
<g><path style="opacity:0.991" fill="#1a2f3b" d="M 695.5,289.5 C 699.863,315.314 701.529,341.314 700.5,367.5C 699.074,394.723 694.407,421.39 686.5,447.5C 686.66,440.969 687.994,434.636 690.5,428.5C 689.319,426.137 689.319,423.803 690.5,421.5C 688.744,419.809 688.244,417.809 689,415.5C 689.807,419.449 690.307,419.449 690.5,415.5C 691.5,415.5 692.5,415.5 693.5,415.5C 694.663,404.867 695.497,394.201 696,383.5C 696.374,382.584 696.874,381.75 697.5,381C 696.953,375.619 695.953,370.285 694.5,365C 695,362.5 695.5,360 696,357.5C 696.626,359.991 697.459,359.991 698.5,357.5C 699.327,335.702 697.993,314.035 694.5,292.5C 694.52,291.274 694.853,290.274 695.5,289.5 Z"/></g>
<g><path style="opacity:0.996" fill="#293532" d="M 368.5,404.5 C 368.167,404.5 367.833,404.5 367.5,404.5C 361.77,390.816 355.937,377.15 350,363.5C 348.484,360.994 346.318,360.16 343.5,361C 334.512,381.781 325.845,402.614 317.5,423.5C 314.821,423.525 313.488,424.858 313.5,427.5C 313.167,427.5 312.833,427.5 312.5,427.5C 312.372,425.345 312.872,423.345 314,421.5C 315.955,420.547 317.622,419.213 319,417.5C 324.258,404.206 329.591,390.873 335,377.5C 337.28,371.661 338.947,365.661 340,359.5C 343.716,355.695 347.382,355.695 351,359.5C 352.079,362.063 352.579,364.729 352.5,367.5C 353.675,367.281 354.675,367.614 355.5,368.5C 355.575,373.379 357.408,377.379 361,380.5C 362.155,387.302 364.488,393.635 368,399.5C 368.494,401.134 368.66,402.801 368.5,404.5 Z"/></g>
<g><path style="opacity:0.996" fill="#f9d69e" d="M 166.5,363.5 C 170.683,362.189 175.016,362.189 179.5,363.5C 179.192,364.308 178.692,364.975 178,365.5C 177.333,384.167 177.333,402.833 178,421.5C 180.386,424.641 179.719,426.641 176,427.5C 172.46,427.037 168.96,426.37 165.5,425.5C 166.137,423.697 167.303,422.364 169,421.5C 169.667,404.833 169.667,388.167 169,371.5C 167.932,368.513 167.099,365.846 166.5,363.5 Z"/></g>
<g><path style="opacity:0.996" fill="#e4d6b2" d="M 367.5,404.5 C 367.833,404.5 368.167,404.5 368.5,404.5C 368.5,404.833 368.5,405.167 368.5,405.5C 371.049,411.599 373.882,417.599 377,423.5C 378.011,424.337 379.178,424.67 380.5,424.5C 380.5,426.167 380.5,427.833 380.5,429.5C 372.167,429.5 363.833,429.5 355.5,429.5C 355.366,427.708 355.699,426.042 356.5,424.5C 358.595,424.24 359.928,423.074 360.5,421C 358.744,417.656 357.411,414.156 356.5,410.5C 350.202,409.504 343.868,409.17 337.5,409.5C 336.662,409.158 336.328,408.492 336.5,407.5C 336.33,406.178 336.663,405.011 337.5,404C 342.489,403.501 347.489,403.334 352.5,403.5C 349.459,394.353 345.959,385.353 342,376.5C 341.059,379.154 340.226,381.821 339.5,384.5C 337.935,386.509 336.935,388.843 336.5,391.5C 333.483,399.912 330.316,408.246 327,416.5C 326.211,418.712 326.378,420.712 327.5,422.5C 328.59,423.857 329.924,424.857 331.5,425.5C 331.5,426.833 331.5,428.167 331.5,429.5C 325.074,430.12 319.074,429.453 313.5,427.5C 313.488,424.858 314.821,423.525 317.5,423.5C 325.845,402.614 334.512,381.781 343.5,361C 346.318,360.16 348.484,360.994 350,363.5C 355.937,377.15 361.77,390.816 367.5,404.5 Z"/></g>
<g><path style="opacity:0.514" fill="#707779" d="M -0.5,385.5 C 0.395666,386.506 1.06233,386.506 1.5,385.5C 3.28065,395.307 4.61398,405.307 5.5,415.5C 4.77842,415.082 4.27842,414.416 4,413.5C 3.30566,404.547 1.80566,395.88 -0.5,387.5C -0.5,386.833 -0.5,386.167 -0.5,385.5 Z"/></g>
<g><path style="opacity:0.996" fill="#1c384c" d="M 181.5,397.5 C 184.579,399.02 187.912,399.853 191.5,400C 196.321,401.322 198.654,404.489 198.5,409.5C 198.721,421.398 193.387,424.731 182.5,419.5C 181.503,412.197 181.169,404.863 181.5,397.5 Z"/></g>
<g><path style="opacity:0.996" fill="#22384b" d="M 339.5,384.5 C 340.978,384.238 342.311,384.571 343.5,385.5C 346.718,390.036 347.884,395.036 347,400.5C 343.27,401.46 339.437,401.793 335.5,401.5C 335.523,399.073 336.023,396.74 337,394.5C 338.633,392.547 339.799,390.38 340.5,388C 340.333,387.167 340.167,386.333 340,385.5C 339.576,388.025 338.41,390.025 336.5,391.5C 336.935,388.843 337.935,386.509 339.5,384.5 Z"/></g>
<g><path style="opacity:0.996" fill="#2d3633" d="M 336.5,407.5 C 335.21,406.942 334.377,405.942 334,404.5C 330.652,410.073 328.485,416.073 327.5,422.5C 326.378,420.712 326.211,418.712 327,416.5C 330.316,408.246 333.483,399.912 336.5,391.5C 338.41,390.025 339.576,388.025 340,385.5C 340.167,386.333 340.333,387.167 340.5,388C 339.799,390.38 338.633,392.547 337,394.5C 336.023,396.74 335.523,399.073 335.5,401.5C 339.437,401.793 343.27,401.46 347,400.5C 347.884,395.036 346.718,390.036 343.5,385.5C 342.311,384.571 340.978,384.238 339.5,384.5C 340.226,381.821 341.059,379.154 342,376.5C 345.959,385.353 349.459,394.353 352.5,403.5C 347.489,403.334 342.489,403.501 337.5,404C 336.663,405.011 336.33,406.178 336.5,407.5 Z"/></g>
<g><path style="opacity:0.996" fill="#f6d79d" d="M 412.5,373.5 C 411.833,374.833 411.167,376.167 410.5,377.5C 409.85,377.804 409.183,378.137 408.5,378.5C 405.521,390.62 406.021,402.62 410,414.5C 410.816,415.823 411.983,416.489 413.5,416.5C 413.709,417.922 414.209,419.255 415,420.5C 418.195,421.851 420.028,424.185 420.5,427.5C 411.772,426.62 405.272,422.287 401,414.5C 396.596,404.196 395.596,393.53 398,382.5C 401.611,377.457 405.111,372.29 408.5,367C 419.396,362.952 420.896,364.119 413,370.5C 412.517,371.448 412.351,372.448 412.5,373.5 Z"/></g>
<g><path style="opacity:0.996" fill="#2e362f" d="M 443.5,370.5 C 444.793,373.679 445.46,377.012 445.5,380.5C 443.904,378.168 442.738,375.501 442,372.5C 439.868,371.072 437.701,369.739 435.5,368.5C 430.919,367.393 426.252,367.227 421.5,368C 419.982,369.848 418.149,371.348 416,372.5C 413.539,375.758 411.873,379.425 411,383.5C 410.13,391.897 410.463,400.23 412,408.5C 415.835,413.089 419.668,417.589 423.5,422C 428.871,422.676 434.204,422.509 439.5,421.5C 439.666,416.156 439.499,410.823 439,405.5C 438.292,404.619 437.458,403.953 436.5,403.5C 436.5,403.167 436.5,402.833 436.5,402.5C 437.5,402.5 438.5,402.5 439.5,402.5C 439.783,403.289 440.283,403.956 441,404.5C 441.667,409.833 441.667,415.167 441,420.5C 440.626,421.416 440.126,422.25 439.5,423C 429.354,426.446 420.687,424.28 413.5,416.5C 406.956,403.887 405.956,390.887 410.5,377.5C 411.167,376.167 411.833,374.833 412.5,373.5C 414.63,371.873 416.63,370.04 418.5,368C 427.421,364.047 435.755,364.881 443.5,370.5 Z"/></g>
<g><path style="opacity:0.996" fill="#f5d69f" d="M 197.5,391.5 C 198.833,392.167 200.167,392.833 201.5,393.5C 203.89,395.609 206.723,397.276 210,398.5C 212.431,403.935 213.431,409.601 213,415.5C 208.436,423.878 201.269,427.878 191.5,427.5C 191.5,426.5 191.5,425.5 191.5,424.5C 196.08,422.922 199.413,419.922 201.5,415.5C 202.643,412.024 202.81,408.358 202,404.5C 198.466,400.299 194.633,396.466 190.5,393C 192.868,390.099 195.202,389.599 197.5,391.5 Z"/></g>
<g><path style="opacity:0.996" fill="#dbd1b5" d="M 263.5,394.5 C 262.722,395.156 262.056,395.989 261.5,397C 264.724,401.296 268.057,405.463 271.5,409.5C 272.302,410.952 272.802,412.618 273,414.5C 273.708,415.381 274.542,416.047 275.5,416.5C 276.295,420.72 277.962,424.553 280.5,428C 285.823,428.499 291.156,428.666 296.5,428.5C 296.69,426.041 295.69,424.374 293.5,423.5C 297.648,423.834 299.315,426.167 298.5,430.5C 292.132,430.83 285.798,430.496 279.5,429.5C 276.333,423.167 273.167,416.833 270,410.5C 266.979,406.482 263.646,402.816 260,399.5C 259.506,397.866 259.34,396.199 259.5,394.5C 260.833,394.5 262.167,394.5 263.5,394.5 Z"/></g>
<g><path style="opacity:0.996" fill="#efd6a4" d="M 287.5,369.5 C 292.165,377.849 291.165,385.516 284.5,392.5C 283.29,392.932 282.29,393.599 281.5,394.5C 278.199,394.792 276.199,396.459 275.5,399.5C 275.338,401.527 275.505,403.527 276,405.5C 279.628,407.341 281.628,410.341 282,414.5C 283.78,415.639 285.614,416.639 287.5,417.5C 289.139,419.806 291.139,421.806 293.5,423.5C 295.69,424.374 296.69,426.041 296.5,428.5C 291.156,428.666 285.823,428.499 280.5,428C 277.962,424.553 276.295,420.72 275.5,416.5C 278.381,418.741 280.048,421.741 280.5,425.5C 281.689,426.429 283.022,426.762 284.5,426.5C 281.601,421.261 279.768,415.595 279,409.5C 275.291,407.261 273.124,403.927 272.5,399.5C 271.513,402.768 271.18,406.102 271.5,409.5C 268.057,405.463 264.724,401.296 261.5,397C 262.056,395.989 262.722,395.156 263.5,394.5C 275.415,391.042 279.249,383.375 275,371.5C 273.14,368.796 270.64,367.129 267.5,366.5C 267.489,364.983 266.823,363.816 265.5,363C 270.814,361.979 275.814,362.812 280.5,365.5C 281.167,367.167 281.833,368.833 282.5,370.5C 283.88,368.335 285.547,368.001 287.5,369.5 Z"/></g>
<g><path style="opacity:0.996" fill="#e0d1af" d="M 275.5,399.5 C 279.885,404.55 283.885,409.884 287.5,415.5C 287.5,416.167 287.5,416.833 287.5,417.5C 285.614,416.639 283.78,415.639 282,414.5C 281.628,410.341 279.628,407.341 276,405.5C 275.505,403.527 275.338,401.527 275.5,399.5 Z"/></g>
<g><path style="opacity:0.996" fill="#2f3830" d="M 281.5,394.5 C 281.179,396.048 280.179,396.715 278.5,396.5C 280,401.87 282.667,406.703 286.5,411C 287.148,412.44 287.481,413.94 287.5,415.5C 283.885,409.884 279.885,404.55 275.5,399.5C 276.199,396.459 278.199,394.792 281.5,394.5 Z"/></g>
<g><path style="opacity:0.996" fill="#f9d69a" d="M 275.5,416.5 C 274.542,416.047 273.708,415.381 273,414.5C 272.802,412.618 272.302,410.952 271.5,409.5C 271.18,406.102 271.513,402.768 272.5,399.5C 273.124,403.927 275.291,407.261 279,409.5C 279.768,415.595 281.601,421.261 284.5,426.5C 283.022,426.762 281.689,426.429 280.5,425.5C 280.048,421.741 278.381,418.741 275.5,416.5 Z"/></g>
<g><path style="opacity:0.996" fill="#2c332f" d="M 337.5,409.5 C 343.868,409.17 350.202,409.504 356.5,410.5C 357.411,414.156 358.744,417.656 360.5,421C 359.928,423.074 358.595,424.24 356.5,424.5C 358.161,420.133 357.495,416.133 354.5,412.5C 348.585,412.022 342.918,411.022 337.5,409.5 Z"/></g>
<g><path style="opacity:0.996" fill="#e0d7b6" d="M 500.5,369.5 C 498.907,373.146 499.24,376.479 501.5,379.5C 499.653,385.892 497.653,392.226 495.5,398.5C 493.494,403.454 491.327,408.454 489,413.5C 487.921,416.063 487.421,418.729 487.5,421.5C 486.835,419.631 486.169,417.631 485.5,415.5C 482.671,419.172 480.004,423.005 477.5,427C 481.152,427.499 484.818,427.665 488.5,427.5C 488.371,425.784 488.038,424.117 487.5,422.5C 488.605,423.6 489.938,424.267 491.5,424.5C 491.833,424.5 492.167,424.5 492.5,424.5C 492.5,426.167 492.5,427.833 492.5,429.5C 486.074,430.12 480.074,429.453 474.5,427.5C 474.263,426.209 474.596,425.209 475.5,424.5C 477.451,423.718 478.951,422.384 480,420.5C 486.845,403.481 493.678,386.481 500.5,369.5 Z"/></g>
<g><path style="opacity:0.996" fill="#26363b" d="M 206.5,394.5 C 206.56,393.957 206.893,393.624 207.5,393.5C 211.409,394.92 214.576,397.253 217,400.5C 217.333,400.167 217.667,399.833 218,399.5C 218.985,401.366 219.485,403.366 219.5,405.5C 218.252,409.725 217.419,414.058 217,418.5C 214.69,420.137 213.19,422.304 212.5,425C 210.975,426.009 209.308,426.509 207.5,426.5C 207.5,427.5 207.5,428.5 207.5,429.5C 203.833,429.164 200.5,429.997 197.5,432C 191.167,432.167 184.833,432.333 178.5,432.5C 171.796,432.496 165.463,431.83 159.5,430.5C 170.679,430.828 181.679,430.495 192.5,429.5C 201.813,429.262 208.98,425.262 214,417.5C 217.751,407.586 215.251,399.92 206.5,394.5 Z"/></g>
<g><path style="opacity:0.996" fill="#243539" d="M 255.5,366.5 C 259.5,366.5 263.5,366.5 267.5,366.5C 270.64,367.129 273.14,368.796 275,371.5C 279.249,383.375 275.415,391.042 263.5,394.5C 262.167,394.5 260.833,394.5 259.5,394.5C 259.34,396.199 259.506,397.866 260,399.5C 263.646,402.816 266.979,406.482 270,410.5C 273.167,416.833 276.333,423.167 279.5,429.5C 285.798,430.496 292.132,430.83 298.5,430.5C 299.315,426.167 297.648,423.834 293.5,423.5C 291.139,421.806 289.139,419.806 287.5,417.5C 287.5,416.833 287.5,416.167 287.5,415.5C 289.762,416.684 291.595,418.35 293,420.5C 297.084,421.274 299.917,423.441 301.5,427C 301.156,428.365 300.489,429.532 299.5,430.5C 293.858,431.37 288.191,432.037 282.5,432.5C 279.482,432.119 276.982,430.786 275,428.5C 274.581,429.672 273.915,430.672 273,431.5C 272.255,430.01 271.088,429.01 269.5,428.5C 267.601,429.729 265.601,430.895 263.5,432C 259,432.167 254.5,432.333 250,432.5C 245.114,432.493 240.614,431.826 236.5,430.5C 245.167,430.5 253.833,430.5 262.5,430.5C 262.5,428.5 262.5,426.5 262.5,424.5C 262.167,424.5 261.833,424.5 261.5,424.5C 257.956,424.761 256.122,423.095 256,419.5C 255.5,402.17 255.333,384.837 255.5,367.5C 255.5,367.167 255.5,366.833 255.5,366.5 Z"/></g>
<g><path style="opacity:0.996" fill="#1b374d" d="M 262.5,424.5 C 262.039,422.45 261.372,420.45 260.5,418.5C 261.529,418.704 262.529,418.204 263.5,417C 261.469,413.768 259.802,410.268 258.5,406.5C 259.145,405.354 259.978,404.354 261,403.5C 263.304,407.797 266.304,411.464 270,414.5C 271.8,418.039 272.8,421.706 273,425.5C 272.221,424.272 271.221,423.272 270,422.5C 267.79,424.111 265.29,424.778 262.5,424.5 Z"/></g>
<g><path style="opacity:0.996" fill="#1a384f" d="M 259.5,368.5 C 261.167,368.5 262.833,368.5 264.5,368.5C 264.34,370.199 264.506,371.866 265,373.5C 265.388,372.572 266.055,371.905 267,371.5C 268.338,372.506 269.671,373.506 271,374.5C 272,371.833 273,371.833 274,374.5C 272.618,379.264 271.785,384.264 271.5,389.5C 267.881,390.244 264.215,390.577 260.5,390.5C 259.608,383.209 259.274,375.876 259.5,368.5 Z"/></g>
<g><path style="opacity:0.996" fill="#f6d79d" d="M 367.5,404.5 C 367.338,406.527 367.505,408.527 368,410.5C 370.798,415.759 373.298,421.093 375.5,426.5C 370.5,426.5 365.5,426.5 360.5,426.5C 361.27,420.945 361.603,415.445 361.5,410C 358.546,408.354 355.88,406.354 353.5,404C 354.516,403.481 355.182,402.647 355.5,401.5C 354.224,396.65 352.391,391.984 350,387.5C 349.047,384.568 348.547,381.568 348.5,378.5C 345.785,377.952 343.785,376.452 342.5,374C 343.077,370.944 343.743,367.944 344.5,365C 345.167,364.333 345.833,364.333 346.5,365C 347.155,366.487 348.155,367.653 349.5,368.5C 354.062,379.58 358.896,390.58 364,401.5C 365.039,402.71 366.206,403.71 367.5,404.5 Z"/></g>
<g><path style="opacity:0.996" fill="#f1d7a1" d="M 487.5,421.5 C 487.5,421.833 487.5,422.167 487.5,422.5C 488.038,424.117 488.371,425.784 488.5,427.5C 484.818,427.665 481.152,427.499 477.5,427C 480.004,423.005 482.671,419.172 485.5,415.5C 486.169,417.631 486.835,419.631 487.5,421.5 Z"/></g>
<g><path style="opacity:0.01" fill="#141414" d="M -0.5,387.5 C 1.80566,395.88 3.30566,404.547 4,413.5C 4.27842,414.416 4.77842,415.082 5.5,415.5C 20.1459,493.627 56.8125,559.461 115.5,613C 118.065,615.08 120.732,616.913 123.5,618.5C 131.685,626.18 140.352,633.346 149.5,640C 163.449,648.824 177.449,657.324 191.5,665.5C 169.581,655.9 149.914,643.733 132.5,629C 62.7688,574.296 19.2688,503.129 2,415.5C 1.76445,417.119 0.931117,418.119 -0.5,418.5C -0.5,408.167 -0.5,397.833 -0.5,387.5 Z"/></g>
<g><path style="opacity:0.996" fill="#f3d59e" d="M 317.5,423.5 C 319,422.412 320.333,421.079 321.5,419.5C 323.64,422.061 325.973,424.395 328.5,426.5C 324.833,427.833 321.167,427.833 317.5,426.5C 316.209,425.473 316.209,424.473 317.5,423.5 Z"/></g>
<g><path style="opacity:0.996" fill="#2a373b" d="M 415.5,361.5 C 404.888,366.278 398.055,374.278 395,385.5C 391.509,403.734 397.343,417.9 412.5,428C 426.999,432.314 440.833,430.814 454,423.5C 453.243,416.473 453.41,409.473 454.5,402.5C 458.068,402.241 459.401,400.241 458.5,396.5C 450.167,396.5 441.833,396.5 433.5,396.5C 433.5,398.5 433.5,400.5 433.5,402.5C 434.5,402.5 435.5,402.5 436.5,402.5C 436.5,402.833 436.5,403.167 436.5,403.5C 434.533,403.739 432.699,403.406 431,402.5C 430.306,398.998 430.806,395.664 432.5,392.5C 436.429,393.433 440.429,393.766 444.5,393.5C 444.72,389.074 447.054,387.074 451.5,387.5C 451.5,388.833 451.5,390.167 451.5,391.5C 449.654,391.222 448.32,391.889 447.5,393.5C 450.997,394.723 454.497,394.723 458,393.5C 459.911,394.782 460.744,396.615 460.5,399C 460.333,400.167 460.167,401.333 460,402.5C 458.415,403.376 457.415,404.709 457,406.5C 456.667,411.833 456.333,417.167 456,422.5C 454.587,424.652 453.754,426.986 453.5,429.5C 451.94,429.481 450.44,429.148 449,428.5C 447.831,429.009 446.998,429.842 446.5,431C 442.104,431.954 437.77,433.121 433.5,434.5C 427.376,432.762 421.043,431.929 414.5,432C 409.423,430.64 405.756,427.64 403.5,423C 397.715,422.21 394.215,419.043 393,413.5C 391.79,406.2 390.79,398.867 390,391.5C 388.924,389.933 388.091,388.266 387.5,386.5C 387.824,384.431 388.658,384.098 390,385.5C 391.085,384.707 392.252,384.04 393.5,383.5C 394.287,380.152 395.121,376.818 396,373.5C 398.386,372.237 400.219,370.403 401.5,368C 405.328,364.215 409.994,362.048 415.5,361.5 Z"/></g>
<g><path style="opacity:0.996" fill="#f6d69d" d="M 447.5,399.5 C 449.604,399.201 451.604,399.534 453.5,400.5C 451.407,403.003 450.407,406.003 450.5,409.5C 450.955,413.85 451.121,418.184 451,422.5C 447.965,424.97 444.465,426.304 440.5,426.5C 440.662,424.176 441.828,422.509 444,421.5C 444.251,419.567 444.751,417.734 445.5,416C 444.533,411.599 444.2,407.099 444.5,402.5C 445.5,402.5 446.5,402.5 447.5,402.5C 447.5,401.5 447.5,400.5 447.5,399.5 Z"/></g>
<g><path style="opacity:0.996" fill="#e6dbc4" d="M 454.5,402.5 C 455.038,400.883 455.371,399.216 455.5,397.5C 449.833,397.5 444.167,397.5 438.5,397.5C 438.366,399.292 438.699,400.958 439.5,402.5C 438.5,402.5 437.5,402.5 436.5,402.5C 435.5,402.5 434.5,402.5 433.5,402.5C 433.5,400.5 433.5,398.5 433.5,396.5C 441.833,396.5 450.167,396.5 458.5,396.5C 459.401,400.241 458.068,402.241 454.5,402.5 Z"/></g>
<g><path style="opacity:0.996" fill="#dfd3b7" d="M 241.5,367.5 C 242.5,367.5 243.5,367.5 244.5,367.5C 244.808,386.213 244.474,404.88 243.5,423.5C 242.094,423.973 241.427,424.973 241.5,426.5C 245.396,427.501 250.063,427.834 255.5,427.5C 254.209,407.354 254.209,387.354 255.5,367.5C 255.333,384.837 255.5,402.17 256,419.5C 256.122,423.095 257.956,424.761 261.5,424.5C 261.5,426.167 261.5,427.833 261.5,429.5C 252.833,429.5 244.167,429.5 235.5,429.5C 235.5,428.5 235.5,427.5 235.5,426.5C 235.328,425.508 235.662,424.842 236.5,424.5C 238.582,424.528 240.416,423.861 242,422.5C 242.807,404.123 242.64,385.79 241.5,367.5 Z"/></g>
<g><path style="opacity:0.996" fill="#676758" d="M 159.5,427.5 C 170.116,429.477 181.116,430.144 192.5,429.5C 181.679,430.495 170.679,430.828 159.5,430.5C 158.167,429.5 158.167,428.5 159.5,427.5 Z"/></g>
<g><path style="opacity:0.996" fill="#7d7e6c" d="M 261.5,424.5 C 261.833,424.5 262.167,424.5 262.5,424.5C 262.5,426.5 262.5,428.5 262.5,430.5C 253.833,430.5 245.167,430.5 236.5,430.5C 235.833,430.5 235.5,430.167 235.5,429.5C 244.167,429.5 252.833,429.5 261.5,429.5C 261.5,427.833 261.5,426.167 261.5,424.5 Z"/></g>
<g><path style="opacity:0.996" fill="#87877b" d="M 331.5,425.5 C 332.451,426.919 332.784,428.585 332.5,430.5C 325.833,430.5 319.167,430.5 312.5,430.5C 312.5,429.5 312.5,428.5 312.5,427.5C 312.833,427.5 313.167,427.5 313.5,427.5C 319.074,429.453 325.074,430.12 331.5,429.5C 331.5,428.167 331.5,426.833 331.5,425.5 Z"/></g>
<g><path style="opacity:0.996" fill="#878875" d="M 356.5,424.5 C 355.699,426.042 355.366,427.708 355.5,429.5C 363.833,429.5 372.167,429.5 380.5,429.5C 372.016,430.493 363.349,430.826 354.5,430.5C 354.025,427.918 354.692,425.918 356.5,424.5 Z"/></g>
<g><path style="opacity:0.996" fill="#828275" d="M 492.5,424.5 C 493.461,426.265 493.795,428.265 493.5,430.5C 486.833,430.5 480.167,430.5 473.5,430.5C 473.263,429.209 473.596,428.209 474.5,427.5C 480.074,429.453 486.074,430.12 492.5,429.5C 492.5,427.833 492.5,426.167 492.5,424.5 Z"/></g>
<g><path style="opacity:0.996" fill="#273438" d="M 368.5,405.5 C 369.458,405.953 370.292,406.619 371,407.5C 372.926,411.47 374.76,415.47 376.5,419.5C 377.82,421.27 379.32,421.603 381,420.5C 381.824,423.835 382.324,427.001 382.5,430C 382.043,430.414 381.709,430.914 381.5,431.5C 377,431.833 372.5,432.167 368,432.5C 363.114,432.493 358.614,431.826 354.5,430.5C 363.349,430.826 372.016,430.493 380.5,429.5C 380.5,427.833 380.5,426.167 380.5,424.5C 379.178,424.67 378.011,424.337 377,423.5C 373.882,417.599 371.049,411.599 368.5,405.5 Z"/></g>
<g><path style="opacity:0.996" fill="#2a3739" d="M 491.5,424.5 C 489.938,424.267 488.605,423.6 487.5,422.5C 487.5,422.167 487.5,421.833 487.5,421.5C 487.421,418.729 487.921,416.063 489,413.5C 491.327,408.454 493.494,403.454 495.5,398.5C 495.231,400.429 495.731,402.095 497,403.5C 498.444,401.845 500.278,401.178 502.5,401.5C 504.5,401.5 506.5,401.5 508.5,401.5C 509.497,401.53 510.164,401.03 510.5,400C 508.121,395.422 506.788,390.589 506.5,385.5C 509.094,391.026 511.427,396.692 513.5,402.5C 513.158,403.338 512.492,403.672 511.5,403.5C 507.154,403.334 502.821,403.501 498.5,404C 497.663,405.011 497.33,406.178 497.5,407.5C 496.957,407.56 496.624,407.893 496.5,408.5C 503.134,409.497 509.8,409.83 516.5,409.5C 518.94,413.817 520.607,418.483 521.5,423.5C 516.832,422.839 514.832,424.839 515.5,429.5C 524.167,429.5 532.833,429.5 541.5,429.5C 541.785,427.712 541.452,426.045 540.5,424.5C 538.528,423.695 537.028,422.361 536,420.5C 532.967,413.344 529.8,406.344 526.5,399.5C 521.31,386.779 515.81,374.112 510,361.5C 507.959,360.577 505.792,360.244 503.5,360.5C 502.787,363.594 501.787,366.594 500.5,369.5C 493.678,386.481 486.845,403.481 480,420.5C 478.951,422.384 477.451,423.718 475.5,424.5C 481.116,412.86 486.283,400.86 491,388.5C 491.278,384.806 491.278,381.139 491,377.5C 496.219,371.661 500.053,365.161 502.5,358C 505.76,357.216 508.927,357.383 512,358.5C 512.464,363.096 513.797,367.429 516,371.5C 519.169,375.005 521.502,379.005 523,383.5C 524.299,383.966 525.799,383.966 527.5,383.5C 526.626,390.341 528.126,396.674 532,402.5C 532.717,411.486 536.384,418.819 543,424.5C 543.667,426.5 543.667,428.5 543,430.5C 538.418,431.802 533.585,432.469 528.5,432.5C 523.833,432.333 519.167,432.167 514.5,432C 512.56,427.488 513.727,423.988 518,421.5C 518.495,419.527 518.662,417.527 518.5,415.5C 517.5,415.5 516.5,415.5 515.5,415.5C 515.5,414.167 515.5,412.833 515.5,411.5C 514.167,411.5 512.833,411.5 511.5,411.5C 511.5,412.833 511.5,414.167 511.5,415.5C 510.5,415.5 509.5,415.5 508.5,415.5C 508.67,414.178 508.337,413.011 507.5,412C 504.21,412.369 500.877,412.369 497.5,412C 496.601,410.764 495.434,409.93 494,409.5C 492.23,411.55 490.896,413.884 490,416.5C 489.363,419.41 489.863,422.077 491.5,424.5 Z"/></g>
<g><path style="opacity:0.996" fill="#ebd9b0" d="M 526.5,399.5 C 529.8,406.344 532.967,413.344 536,420.5C 537.028,422.361 538.528,423.695 540.5,424.5C 541.452,426.045 541.785,427.712 541.5,429.5C 532.833,429.5 524.167,429.5 515.5,429.5C 514.832,424.839 516.832,422.839 521.5,423.5C 520.607,418.483 518.94,413.817 516.5,409.5C 510.167,408.833 503.833,408.167 497.5,407.5C 497.33,406.178 497.663,405.011 498.5,404C 502.821,403.501 507.154,403.334 511.5,403.5C 513.704,406.439 516.704,408.105 520.5,408.5C 520.75,412.724 522.25,416.391 525,419.5C 526.813,418.391 527.646,419.058 527.5,421.5C 523.515,421.44 521.848,423.44 522.5,427.5C 526.81,426.92 531.143,426.586 535.5,426.5C 534.805,424.022 533.305,422.022 531,420.5C 530.092,413.252 528.592,406.252 526.5,399.5 Z"/></g>
<g><path style="opacity:0.996" fill="#88887b" d="M 497.5,407.5 C 503.833,408.167 510.167,408.833 516.5,409.5C 509.8,409.83 503.134,409.497 496.5,408.5C 496.624,407.893 496.957,407.56 497.5,407.5 Z"/></g>
<g><path style="opacity:0.996" fill="#f6d69a" d="M 526.5,399.5 C 528.592,406.252 530.092,413.252 531,420.5C 533.305,422.022 534.805,424.022 535.5,426.5C 531.143,426.586 526.81,426.92 522.5,427.5C 521.848,423.44 523.515,421.44 527.5,421.5C 527.646,419.058 526.813,418.391 525,419.5C 522.25,416.391 520.75,412.724 520.5,408.5C 516.704,408.105 513.704,406.439 511.5,403.5C 512.492,403.672 513.158,403.338 513.5,402.5C 515.185,401.816 516.185,400.483 516.5,398.5C 515.047,398.94 513.881,398.274 513,396.5C 511.333,389.833 509.667,383.167 508,376.5C 506.374,376.146 504.541,376.146 502.5,376.5C 503.345,372.647 505.679,369.981 509.5,368.5C 510.236,372.02 511.569,375.187 513.5,378C 513.397,379.561 513.063,381.061 512.5,382.5C 518.035,386.556 521.869,391.889 524,398.5C 524.671,399.252 525.504,399.586 526.5,399.5 Z"/></g>
<g><path style="opacity:0.996" fill="#29373e" d="M 506.5,385.5 C 506.788,390.589 508.121,395.422 510.5,400C 510.164,401.03 509.497,401.53 508.5,401.5C 508.611,400.883 508.944,400.383 509.5,400C 508.207,399.51 506.873,399.343 505.5,399.5C 506.11,395.365 505.277,391.699 503,388.5C 501.686,391.401 500.52,394.401 499.5,397.5C 499.787,399.443 500.787,400.777 502.5,401.5C 500.278,401.178 498.444,401.845 497,403.5C 495.731,402.095 495.231,400.429 495.5,398.5C 497.653,392.226 499.653,385.892 501.5,379.5C 502.222,379.082 502.722,378.416 503,377.5C 504.456,380.032 505.623,382.699 506.5,385.5 Z"/></g>
<g><path style="opacity:0.996" fill="#1a3850" d="M 508.5,401.5 C 506.5,401.5 504.5,401.5 502.5,401.5C 500.787,400.777 499.787,399.443 499.5,397.5C 500.52,394.401 501.686,391.401 503,388.5C 505.277,391.699 506.11,395.365 505.5,399.5C 506.873,399.343 508.207,399.51 509.5,400C 508.944,400.383 508.611,400.883 508.5,401.5 Z"/></g>
<g><path style="opacity:0.996" fill="#ebd7ac" d="M 526.5,399.5 C 525.504,399.586 524.671,399.252 524,398.5C 521.869,391.889 518.035,386.556 512.5,382.5C 513.063,381.061 513.397,379.561 513.5,378C 511.569,375.187 510.236,372.02 509.5,368.5C 505.679,369.981 503.345,372.647 502.5,376.5C 504.541,376.146 506.374,376.146 508,376.5C 509.667,383.167 511.333,389.833 513,396.5C 513.881,398.274 515.047,398.94 516.5,398.5C 516.185,400.483 515.185,401.816 513.5,402.5C 511.427,396.692 509.094,391.026 506.5,385.5C 505.623,382.699 504.456,380.032 503,377.5C 502.722,378.416 502.222,379.082 501.5,379.5C 499.24,376.479 498.907,373.146 500.5,369.5C 501.787,366.594 502.787,363.594 503.5,360.5C 505.792,360.244 507.959,360.577 510,361.5C 515.81,374.112 521.31,386.779 526.5,399.5 Z"/></g>
<g><path style="opacity:0.494" fill="#5e6467" d="M 700.5,367.5 C 700.205,369.735 700.539,371.735 701.5,373.5C 701.5,377.167 701.5,380.833 701.5,384.5C 696.688,421.313 687.188,456.98 673,491.5C 672.617,492.056 672.117,492.389 671.5,492.5C 677.508,477.566 682.508,462.566 686.5,447.5C 694.407,421.39 699.074,394.723 700.5,367.5 Z"/></g>
<g><path style="opacity:0.706" fill="#62696b" d="M 5.5,415.5 C 9.2829,428.625 12.7829,441.959 16,455.5C 19.9224,468.789 25.0891,481.456 31.5,493.5C 52.5668,541.908 83.2335,583.241 123.5,617.5C 123.5,617.833 123.5,618.167 123.5,618.5C 120.732,616.913 118.065,615.08 115.5,613C 56.8125,559.461 20.1459,493.627 5.5,415.5 Z"/></g>
<g><path style="opacity:0.996" fill="#223741" d="M 283.5,454.5 C 284.455,460.409 284.789,466.409 284.5,472.5C 286.483,472.843 287.817,472.176 288.5,470.5C 288.5,469.5 288.5,468.5 288.5,467.5C 290.5,467.5 292.5,467.5 294.5,467.5C 294.278,470.39 294.945,473.057 296.5,475.5C 298.782,476.9 300.282,476.234 301,473.5C 301.499,469.179 301.666,464.846 301.5,460.5C 302.973,462.583 304.14,464.916 305,467.5C 308.192,466.621 309.026,464.788 307.5,462C 308.955,457.542 311.955,454.876 316.5,454C 323.895,451.946 330.729,453.113 337,457.5C 340.849,454.329 345.183,451.996 350,450.5C 355.044,451.789 360.044,451.789 365,450.5C 365.078,453.57 364.578,456.57 363.5,459.5C 360.635,459.055 358.135,459.722 356,461.5C 356.518,465.425 356.518,469.425 356,473.5C 355.424,475.852 353.924,476.852 351.5,476.5C 350.006,476.291 348.839,475.624 348,474.5C 347.585,470.152 347.751,465.819 348.5,461.5C 344.615,459.974 340.615,459.14 336.5,459C 335.87,462.129 335.204,465.296 334.5,468.5C 333.522,468.977 332.689,469.643 332,470.5C 331.223,473.429 331.39,476.263 332.5,479C 331.207,479.49 329.873,479.657 328.5,479.5C 328.67,478.178 328.337,477.011 327.5,476C 324.167,475.667 320.833,475.333 317.5,475C 313.402,471.484 308.736,470.651 303.5,472.5C 302.221,475.112 300.555,477.445 298.5,479.5C 297.522,479.023 296.689,478.357 296,477.5C 294.513,474.519 293.179,471.519 292,468.5C 291.887,472.543 290.721,476.209 288.5,479.5C 287.548,477.955 287.215,476.288 287.5,474.5C 285.856,474.714 284.356,474.38 283,473.5C 282.667,469.833 282.333,466.167 282,462.5C 278.984,459.339 279.484,456.673 283.5,454.5 Z"/></g>
<g><path style="opacity:0.996" fill="#a9b1ab" d="M 353.5,457.5 C 353.157,455.775 352.157,455.275 350.5,456C 351.822,460.267 351.822,464.434 350.5,468.5C 350.5,464.833 350.5,461.167 350.5,457.5C 348.167,457.5 345.833,457.5 343.5,457.5C 343.5,456.5 343.5,455.5 343.5,454.5C 348.844,454.334 354.177,454.501 359.5,455C 359.957,455.414 360.291,455.914 360.5,456.5C 358.257,457.474 355.924,457.808 353.5,457.5 Z"/></g>
<g><path style="opacity:0.996" fill="#223949" d="M 403.5,470.5 C 402.512,465.36 402.179,460.026 402.5,454.5C 401.5,454.5 400.5,454.5 399.5,454.5C 400.721,460.378 400.721,466.211 399.5,472C 403.486,472.499 407.486,472.666 411.5,472.5C 411.936,475.364 411.103,477.697 409,479.5C 406.606,477.932 404.106,476.599 401.5,475.5C 398.638,476.597 395.805,476.597 393,475.5C 391.189,476.424 391.355,477.257 393.5,478C 393,478.5 392.5,479 392,479.5C 390.16,479.488 388.327,478.654 386.5,477C 383.518,476.502 380.518,476.335 377.5,476.5C 380.305,475.681 383.305,475.181 386.5,475C 387.554,473.612 387.72,472.112 387,470.5C 386.722,471.416 386.222,472.082 385.5,472.5C 383.012,470.612 380.012,469.945 376.5,470.5C 376.5,468.5 376.5,466.5 376.5,464.5C 379.698,465.036 382.365,464.369 384.5,462.5C 386.605,464.797 387.938,464.13 388.5,460.5C 391.276,460.911 391.943,460.078 390.5,458C 391.044,456.415 391.711,454.915 392.5,453.5C 393.063,451.68 394.229,450.347 396,449.5C 396.5,449.667 397,449.833 397.5,450C 393.47,454.218 393.47,455.218 397.5,453C 399.235,452.349 400.902,452.515 402.5,453.5C 403.495,459.128 403.829,464.794 403.5,470.5 Z"/></g>
<g><path style="opacity:0.996" fill="#ced6cf" d="M 384.5,462.5 C 382.365,464.369 379.698,465.036 376.5,464.5C 376.5,466.5 376.5,468.5 376.5,470.5C 380.012,469.945 383.012,470.612 385.5,472.5C 381.5,472.5 377.5,472.5 373.5,472.5C 373.697,466.455 373.363,460.455 372.5,454.5C 376.514,454.334 380.514,454.501 384.5,455C 385.711,455.893 385.711,456.726 384.5,457.5C 381.916,456.607 379.249,456.274 376.5,456.5C 376.5,458.5 376.5,460.5 376.5,462.5C 379.167,462.5 381.833,462.5 384.5,462.5 Z"/></g>
<g><path style="opacity:1" fill="#d6d9d0" d="M 319.5,454.5 C 329.212,453.709 333.045,458.042 331,467.5C 330.426,469.492 329.259,470.992 327.5,472C 316.886,473.715 312.72,469.215 315,458.5C 316.196,456.714 317.696,455.381 319.5,454.5 Z"/></g>
<g><path style="opacity:1" fill="#203946" d="M 321.5,470.5 C 320.167,470.5 319.5,469.833 319.5,468.5C 319.335,465.482 319.502,462.482 320,459.5C 324.846,457.677 326.512,459.344 325,464.5C 324.373,466.927 323.206,468.927 321.5,470.5 Z"/></g>
<g><path style="opacity:0.996" fill="#27383b" d="M 301.5,460.5 C 301.666,464.846 301.499,469.179 301,473.5C 300.282,476.234 298.782,476.9 296.5,475.5C 294.945,473.057 294.278,470.39 294.5,467.5C 292.5,467.5 290.5,467.5 288.5,467.5C 288.5,468.5 288.5,469.5 288.5,470.5C 287.539,468.735 287.205,466.735 287.5,464.5C 290.5,464.5 293.5,464.5 296.5,464.5C 296.5,467.167 296.5,469.833 296.5,472.5C 297.873,472.657 299.207,472.49 300.5,472C 299.525,466.259 299.192,460.425 299.5,454.5C 298.127,454.343 296.793,454.51 295.5,455C 297.278,457.135 297.945,459.635 297.5,462.5C 294.167,462.5 290.833,462.5 287.5,462.5C 287.5,459.833 287.5,457.167 287.5,454.5C 286.167,454.5 284.833,454.5 283.5,454.5C 284.476,453.185 285.476,451.852 286.5,450.5C 289.135,451.473 291.135,453.14 292.5,455.5C 294.492,451.995 297.492,450.829 301.5,452C 301.827,454.685 301.827,457.518 301.5,460.5 Z"/></g>
<g><path style="opacity:0.996" fill="#e3e4d5" d="M 353.5,457.5 C 353.197,462.43 353.531,467.263 354.5,472C 353.207,472.49 351.873,472.657 350.5,472.5C 350.5,471.167 350.5,469.833 350.5,468.5C 351.822,464.434 351.822,460.267 350.5,456C 352.157,455.275 353.157,455.775 353.5,457.5 Z"/></g>
<g><path style="opacity:0.996" fill="#d8d7ca" d="M 283.5,454.5 C 284.833,454.5 286.167,454.5 287.5,454.5C 287.5,457.167 287.5,459.833 287.5,462.5C 290.833,462.5 294.167,462.5 297.5,462.5C 297.945,459.635 297.278,457.135 295.5,455C 296.793,454.51 298.127,454.343 299.5,454.5C 299.192,460.425 299.525,466.259 300.5,472C 299.207,472.49 297.873,472.657 296.5,472.5C 296.5,469.833 296.5,467.167 296.5,464.5C 293.5,464.5 290.5,464.5 287.5,464.5C 287.205,466.735 287.539,468.735 288.5,470.5C 287.817,472.176 286.483,472.843 284.5,472.5C 284.789,466.409 284.455,460.409 283.5,454.5 Z"/></g>
<g><path style="opacity:0.996" fill="#2a362f" d="M 321.5,470.5 C 323.206,468.927 324.373,466.927 325,464.5C 326.512,459.344 324.846,457.677 320,459.5C 319.502,462.482 319.335,465.482 319.5,468.5C 318.883,468.389 318.383,468.056 318,467.5C 316.061,458.77 319.228,455.603 327.5,458C 330.285,462.193 329.952,466.193 326.5,470C 324.866,470.494 323.199,470.66 321.5,470.5 Z"/></g>
<g><path style="opacity:0.996" fill="#22353c" d="M 392.5,453.5 C 391.711,454.915 391.044,456.415 390.5,458C 391.943,460.078 391.276,460.911 388.5,460.5C 387.938,464.13 386.605,464.797 384.5,462.5C 381.833,462.5 379.167,462.5 376.5,462.5C 376.5,460.5 376.5,458.5 376.5,456.5C 379.249,456.274 381.916,456.607 384.5,457.5C 385.711,456.726 385.711,455.893 384.5,455C 380.514,454.501 376.514,454.334 372.5,454.5C 373.363,460.455 373.697,466.455 373.5,472.5C 377.5,472.5 381.5,472.5 385.5,472.5C 386.222,472.082 386.722,471.416 387,470.5C 387.72,472.112 387.554,473.612 386.5,475C 383.305,475.181 380.305,475.681 377.5,476.5C 376.127,476.657 374.793,476.49 373.5,476C 372.314,473.284 370.647,470.951 368.5,469C 372.052,464.577 372.386,459.91 369.5,455C 371.952,453.041 374.786,452.208 378,452.5C 383.225,453.095 388.058,453.428 392.5,453.5 Z"/></g>
<g><path style="opacity:0.996" fill="#e4e7d9" d="M 403.5,470.5 C 406.206,470.425 408.873,470.092 411.5,469.5C 411.5,470.5 411.5,471.5 411.5,472.5C 407.486,472.666 403.486,472.499 399.5,472C 400.721,466.211 400.721,460.378 399.5,454.5C 400.5,454.5 401.5,454.5 402.5,454.5C 402.179,460.026 402.512,465.36 403.5,470.5 Z"/></g>
<g><path style="opacity:0.557" fill="#5e6467" d="M 671.5,492.5 C 638.837,567.004 586.504,623.504 514.5,662C 507.484,666.011 500.15,669.178 492.5,671.5C 573.752,633.581 633.419,573.915 671.5,492.5 Z"/></g>
<g><path style="opacity:0.027" fill="#131414" d="M 701.5,384.5 C 701.5,394.5 701.5,404.5 701.5,414.5C 700.4,412.723 699.566,410.723 699,408.5C 683.377,501.801 637.71,577.467 562,635.5C 512.175,670.428 457.675,692.428 398.5,701.5C 392.833,701.5 387.167,701.5 381.5,701.5C 389.931,699.652 398.598,698.486 407.5,698C 410.379,697.454 413.046,696.621 415.5,695.5C 442.556,691.503 468.223,683.503 492.5,671.5C 500.15,669.178 507.484,666.011 514.5,662C 586.504,623.504 638.837,567.004 671.5,492.5C 672.117,492.389 672.617,492.056 673,491.5C 687.188,456.98 696.688,421.313 701.5,384.5 Z"/></g>
<g><path style="opacity:0.396" fill="#505658" d="M 123.5,617.5 C 149.963,640.07 179.297,658.07 211.5,671.5C 215.937,673.935 220.604,676.101 225.5,678C 235.62,681.519 245.62,685.019 255.5,688.5C 250.662,688.579 245.996,687.745 241.5,686C 232.891,682.521 224.225,679.354 215.5,676.5C 209.139,672.989 202.472,669.989 195.5,667.5C 193.517,667.843 192.183,667.176 191.5,665.5C 177.449,657.324 163.449,648.824 149.5,640C 140.352,633.346 131.685,626.18 123.5,618.5C 123.5,618.167 123.5,617.833 123.5,617.5 Z"/></g>
<g><path style="opacity:0.02" fill="#0d0d0d" d="M 195.5,667.5 C 202.472,669.989 209.139,672.989 215.5,676.5C 210.583,675.88 205.916,674.38 201.5,672C 199.141,670.758 197.141,669.258 195.5,667.5 Z"/></g>
<g><path style="opacity:0.004" fill="#000100" d="M 226.5,682.5 C 225.833,683.167 225.833,683.167 226.5,682.5 Z"/></g>
<g><path style="opacity:0.933" fill="#162834" d="M 472.5,678.5 C 467.109,681.11 461.443,683.277 455.5,685C 442.05,688.528 428.717,692.028 415.5,695.5C 412.833,695.5 410.167,695.5 407.5,695.5C 409.781,694.661 412.115,693.661 414.5,692.5C 415.167,692.833 415.833,693.167 416.5,693.5C 424.014,691.08 431.68,689.246 439.5,688C 450.39,684.313 461.39,681.146 472.5,678.5 Z"/></g>
<g><path style="opacity:0.282" fill="#515759" d="M 492.5,671.5 C 468.223,683.503 442.556,691.503 415.5,695.5C 428.717,692.028 442.05,688.528 455.5,685C 461.443,683.277 467.109,681.11 472.5,678.5C 479.167,676.167 485.833,673.833 492.5,671.5 Z"/></g>
<g><path style="opacity:0.014" fill="#111212" d="M 215.5,676.5 C 224.225,679.354 232.891,682.521 241.5,686C 245.996,687.745 250.662,688.579 255.5,688.5C 259.062,690.314 262.729,691.98 266.5,693.5C 252.906,690.768 239.573,687.102 226.5,682.5C 222.671,680.703 218.671,679.203 214.5,678C 215.056,677.617 215.389,677.117 215.5,676.5 Z"/></g>
<g><path style="opacity:0.486" fill="#505456" d="M 255.5,688.5 C 265.506,690.556 275.506,692.722 285.5,695C 284.552,695.483 283.552,695.649 282.5,695.5C 277.199,694.623 271.865,693.956 266.5,693.5C 262.729,691.98 259.062,690.314 255.5,688.5 Z"/></g>
<g><path style="opacity:0.012" fill="#090a0a" d="M 266.5,693.5 C 271.865,693.956 277.199,694.623 282.5,695.5C 290.006,697.031 297.673,698.531 305.5,700C 312.013,700.172 318.347,700.672 324.5,701.5C 315.5,701.5 306.5,701.5 297.5,701.5C 297.167,700.167 296.833,700.167 296.5,701.5C 296.167,701.5 295.833,701.5 295.5,701.5C 294.048,700.698 292.382,700.198 290.5,700C 291.5,699.667 292.5,699.333 293.5,699C 285.474,698.201 277.474,697.201 269.5,696C 269.833,695.667 270.167,695.333 270.5,695C 268.942,694.79 267.609,694.29 266.5,693.5 Z"/></g>
<g><path style="opacity:0.204" fill="#273036" d="M 211.5,671.5 C 217.587,672.156 223.587,673.323 229.5,675C 228.5,675.333 227.5,675.667 226.5,676C 233.692,679.092 241.026,681.925 248.5,684.5C 248.833,683.833 249.167,683.167 249.5,682.5C 259.757,687.767 270.757,691.1 282.5,692.5C 283.293,692.069 284.127,691.735 285,691.5C 291.373,694.418 298.207,696.085 305.5,696.5C 305.611,697.117 305.944,697.617 306.5,698C 330.112,700.386 353.778,701.052 377.5,700C 387.74,699.14 397.74,697.64 407.5,695.5C 410.167,695.5 412.833,695.5 415.5,695.5C 413.046,696.621 410.379,697.454 407.5,698C 398.598,698.486 389.931,699.652 381.5,701.5C 362.5,701.5 343.5,701.5 324.5,701.5C 318.347,700.672 312.013,700.172 305.5,700C 297.673,698.531 290.006,697.031 282.5,695.5C 283.552,695.649 284.552,695.483 285.5,695C 275.506,692.722 265.506,690.556 255.5,688.5C 245.62,685.019 235.62,681.519 225.5,678C 220.604,676.101 215.937,673.935 211.5,671.5 Z"/></g>
<g><path style="opacity:0.445" fill="#101d27" d="M 407.5,695.5 C 397.74,697.64 387.74,699.14 377.5,700C 353.778,701.052 330.112,700.386 306.5,698C 305.944,697.617 305.611,697.117 305.5,696.5C 339.515,699.286 373.515,698.952 407.5,695.5 Z"/></g>
</svg>
